<svg width="800" height="600" viewBox="0 0 800 600" fill="none" xmlns="http://www.w3.org/2000/svg">
<rect width="800" height="600" fill="white"/>
<path d="M582.9 178.4C581.9 180.3 599.2 178.1 603.5 172.2C608.1 165.8 585.2 174.1 582.9 178.4Z" fill="url(#paint0_linear)"/>
<path d="M571.4 196.1C570.4 198 587.7 195.8 592 189.9C596.6 183.5 573.7 191.8 571.4 196.1Z" fill="url(#paint1_linear)"/>
<path d="M559 213.5C558 215.4 575.3 213.2 579.6 207.3C584.3 200.8 561.3 209.2 559 213.5Z" fill="url(#paint2_linear)"/>
<path d="M545.8 230.5C544.8 232.4 562.1 230.2 566.4 224.3C571 217.8 548.1 226.2 545.8 230.5Z" fill="url(#paint3_linear)"/>
<path d="M619 129.9C615.7 133.6 612.2 137.6 608.7 141.7C599.9 152.1 583.9 171.5 575.5 185C561.2 208.1 530.4 244.6 530.1 245L530.9 245.7C531.2 245.3 562.1 208.8 576.4 185.6C584.7 172.2 600.5 153 609.2 142.7C612.9 138.3 616.4 134.3 619.4 130.9C622.1 130.4 633.2 122.3 634.1 116C635.2 108.6 620.3 124.3 619 129.9Z" fill="url(#paint4_linear)"/>
<path d="M593.7 164.5C593.3 165.2 605.5 165.7 610.4 160C615.7 153.8 596.1 160.3 593.7 164.5Z" fill="url(#paint5_linear)"/>
<path d="M604.4 151.3C604 151.8 614.8 152 619.2 147.8C623.9 143.3 606.6 148.2 604.4 151.3Z" fill="url(#paint6_linear)"/>
<path d="M615 139C614.7 139.6 623.1 140 626.3 135.5C629.9 130.6 616.7 135.7 615 139Z" fill="url(#paint7_linear)"/>
<path d="M579 176.7C577.4 178.1 574.8 161.6 579.6 156C584.7 149.9 582.7 173.4 579 176.7Z" fill="url(#paint8_linear)"/>
<path d="M567.7 194.6C566.1 196 563.5 179.5 568.3 173.9C573.4 167.9 571.3 191.3 567.7 194.6Z" fill="url(#paint9_linear)"/>
<path d="M555.1 212.2C553.5 213.6 550.9 197.1 555.7 191.5C560.8 185.4 558.8 208.9 555.1 212.2Z" fill="url(#paint10_linear)"/>
<path d="M541.9 228.9C540.3 230.3 537.7 213.8 542.5 208.2C547.6 202.1 545.6 225.6 541.9 228.9Z" fill="url(#paint11_linear)"/>
<path d="M590.1 162.3C589.5 162.9 585.7 151.7 590 145.6C594.8 139 593.7 158.9 590.1 162.3Z" fill="url(#paint12_linear)"/>
<path d="M601 149.1C600.6 149.6 597.4 139.7 600.4 134.5C603.7 128.9 603.5 146.2 601 149.1Z" fill="url(#paint13_linear)"/>
<path d="M612.2 136.2C611.7 136.6 608.9 129 612.6 124.8C616.5 120.1 615.1 133.7 612.2 136.2Z" fill="url(#paint14_linear)"/>
<path d="M529 273.3V274.2L523.2 274.4L524.1 277.1C526.3 276 535.5 271.2 547.8 263.8C548.6 256.8 544.4 246.3 552.2 233.3C560.2 219.9 570.3 211.9 572.4 210.2C572.1 213.2 571.9 231.4 567.3 241.7C564 249.1 560.7 254.1 557.8 257.5C558 257.4 558.3 257.3 558.5 257.2C564.2 253.5 570.2 249.4 576.2 244.9C577.9 243.6 579.6 242.4 581.3 241.1C582.1 233.9 577.6 223.1 585.5 209.7C593.6 195.9 603.9 187.5 606 185.7C605.7 188.8 605.2 206.4 600.6 217.1C596.8 225.7 592.9 231.4 589.6 235.1C596.6 230 603.1 225.4 609.1 221.1C610.7 214.1 608.4 203 618 191.3C628.1 178.9 639.6 172.3 642 170.9C641.2 173.9 638.3 191.5 631.8 201C628.8 205.4 623.7 210.3 619.1 214.2C628.9 207.5 637.3 202 644.4 197.7C661.3 160.1 716.9 166.7 716.9 166.7C716.9 166.7 708.7 170.5 703.8 173.5C695.6 178.5 686.8 186.8 676.9 192.8C663.4 200.9 654.2 203.3 644.6 198.7C638.9 202.1 631.1 207.1 619.8 214.9C624.8 212.1 630.6 209.2 635.4 208C646.5 205.1 663.6 208.5 666.7 208.8C664.6 210.5 654.5 219.2 639.5 224.5C625.3 229.6 615.9 223.4 609 222.5C603.5 226.4 597.3 230.8 590.4 235.8C594.9 233.9 601.4 232.1 610.4 231.3C621.8 230.4 638.2 235.8 641.2 236.5C638.9 237.9 627.7 245.1 612.2 248.2C597.3 251.3 588.9 243.6 582 241.8C580.3 243 578.6 244.3 576.9 245.6C572 249.3 567 252.7 562.3 255.8C567.2 254.3 573.6 253.2 582.2 252.9C595.6 252.5 615.5 260.7 619 261.8C616.2 263.3 602.7 271.1 584.3 274C566.1 276.8 556.6 266.7 548.5 264.6C534.6 273.1 524.5 278.1 524.3 278.2L523.8 278.4L522.2 273.5L529 273.3Z" fill="#8FEADD"/>
<path d="M635.6 303.2C635.6 303.2 565.7 258.8 520 312.9C570.2 355.2 635.6 303.2 635.6 303.2Z" fill="#8FEADD"/>
<path d="M628.6 303.6V304.1C628.5 304.1 616.8 304.2 597.8 305.4C594.1 305.6 589.9 305.9 585.3 306.2L601.5 317.7L601.2 318.1L584.5 306.2C575.4 306.9 564.8 307.8 553 309L574.1 324.6L573.8 325L552.2 309.1C542.3 310.1 531.6 311.4 520.4 312.9L520.3 312.4C524.9 311.8 529.4 311.2 533.8 310.7L548.9 295.6L549.3 296L534.7 310.6C546.6 309.2 557.7 308 567.6 307.1L584.1 290.4L584.5 290.8L568.4 307.1C579.9 306.1 589.8 305.4 597.7 304.9C600.3 304.7 602.8 304.6 605.2 304.5L612.5 297.2L612.9 297.6L606 304.5C620.2 303.7 628.5 303.6 628.6 303.6Z" fill="white"/>
<path d="M534.9 482.1C534.9 494.8 489 505.1 432.3 505.1C375.6 505.1 329.7 494.8 329.7 482.1V468.3H534.8V482.1H534.9Z" fill="#FBA700"/>
<path d="M432.3 491.3C488.964 491.3 534.9 481.003 534.9 468.3C534.9 455.597 488.964 445.3 432.3 445.3C375.636 445.3 329.7 455.597 329.7 468.3C329.7 481.003 375.636 491.3 432.3 491.3Z" fill="#FFCC00"/>
<path d="M432.3 481.8C477.256 481.8 513.7 474.95 513.7 466.5C513.7 458.05 477.256 451.2 432.3 451.2C387.344 451.2 350.9 458.05 350.9 466.5C350.9 474.95 387.344 481.8 432.3 481.8Z" fill="#FBA700"/>
<path opacity="0.3" d="M329.8 468C347.4 475 380.8 479.7 419.3 479.7C475.6 479.7 521.3 469.5 521.9 456.9C504.3 449.9 470.9 445.2 432.4 445.2C376 445.3 330.3 455.4 329.8 468Z" fill="#FF9E00"/>
<path d="M513.7 449.3C513.7 462 467.8 472.3 411.1 472.3C354.4 472.3 308.5 462 308.5 449.3V435.5H513.6V449.3H513.7Z" fill="#FBA700"/>
<path d="M411.1 458.5C467.764 458.5 513.7 448.203 513.7 435.5C513.7 422.797 467.764 412.5 411.1 412.5C354.436 412.5 308.5 422.797 308.5 435.5C308.5 448.203 354.436 458.5 411.1 458.5Z" fill="#FFCC00"/>
<path d="M411.1 449C456.056 449 492.5 442.15 492.5 433.7C492.5 425.25 456.056 418.4 411.1 418.4C366.144 418.4 329.7 425.25 329.7 433.7C329.7 442.15 366.144 449 411.1 449Z" fill="#FBA700"/>
<path opacity="0.3" d="M411.1 412.5C382.2 412.5 356.2 415.2 337.5 419.5C337.2 420.2 337 421 337 421.7C337 434.4 382.9 444.7 439.6 444.7C468.5 444.7 494.5 442 513.2 437.7C513.5 437 513.7 436.2 513.7 435.5C513.7 422.8 467.8 412.5 411.1 412.5Z" fill="#FF9E00"/>
<path d="M553 413C553 425.7 507.1 436 450.4 436C393.7 436 347.8 425.7 347.8 413V399.2H553V413Z" fill="#FBA700"/>
<path d="M450.4 422.2C507.064 422.2 553 411.903 553 399.2C553 386.498 507.064 376.2 450.4 376.2C393.736 376.2 347.8 386.498 347.8 399.2C347.8 411.903 393.736 422.2 450.4 422.2Z" fill="#FFCC00"/>
<path d="M450.4 412.7C495.356 412.7 531.8 405.85 531.8 397.4C531.8 388.95 495.356 382.1 450.4 382.1C405.444 382.1 369 388.95 369 397.4C369 405.85 405.444 412.7 450.4 412.7Z" fill="#FBA700"/>
<path opacity="0.3" d="M450.4 375.9C421.5 375.9 395.5 378.6 376.8 382.9C376.5 383.6 376.3 384.4 376.3 385.1C376.3 397.8 422.2 408.1 478.9 408.1C507.8 408.1 533.8 405.4 552.5 401.1C552.8 400.4 553 399.6 553 398.9C553 386.2 507.1 375.9 450.4 375.9Z" fill="#FF9E00"/>
<path d="M530 382.8C530 395.5 484.1 405.8 427.4 405.8C370.7 405.8 324.8 395.5 324.8 382.8V369H530V382.8Z" fill="#FBA700"/>
<path d="M427.4 392C484.064 392 530 381.703 530 369C530 356.297 484.064 346 427.4 346C370.736 346 324.8 356.297 324.8 369C324.8 381.703 370.736 392 427.4 392Z" fill="#FFCC00"/>
<path d="M427.4 382.5C472.356 382.5 508.8 375.65 508.8 367.2C508.8 358.75 472.356 351.9 427.4 351.9C382.444 351.9 346 358.75 346 367.2C346 375.65 382.444 382.5 427.4 382.5Z" fill="#FBA700"/>
<path opacity="0.3" d="M427.4 346.3C398.5 346.3 372.5 349 353.8 353.3C353.5 354 353.3 354.8 353.3 355.5C353.3 368.2 399.2 378.5 455.9 378.5C484.8 378.5 510.8 375.8 529.5 371.5C529.8 370.8 530 370 530 369.3C530 356.6 484.1 346.3 427.4 346.3Z" fill="#FF9E00"/>
<path d="M565.2 348.5C565.2 361.2 519.3 371.5 462.6 371.5C405.9 371.5 360 361.2 360 348.5V334.7H565.1V348.5H565.2Z" fill="#FBA700"/>
<path d="M462.6 357.7C519.264 357.7 565.2 347.403 565.2 334.7C565.2 321.998 519.264 311.7 462.6 311.7C405.936 311.7 360 321.998 360 334.7C360 347.403 405.936 357.7 462.6 357.7Z" fill="#FFCC00"/>
<path d="M462.6 348.2C507.556 348.2 544 341.35 544 332.9C544 324.45 507.556 317.6 462.6 317.6C417.644 317.6 381.2 324.45 381.2 332.9C381.2 341.35 417.644 348.2 462.6 348.2Z" fill="#FBA700"/>
<path opacity="0.3" d="M462.6 311.7C433.7 311.7 407.7 314.4 389 318.7C388.7 319.4 388.5 320.2 388.5 320.9C388.5 333.6 434.4 343.9 491.1 343.9C520 343.9 546 341.2 564.7 336.9C565 336.2 565.2 335.4 565.2 334.7C565.2 322 519.3 311.7 462.6 311.7Z" fill="#FF9E00"/>
<path d="M524 313.6C524 326.3 478.1 336.6 421.4 336.6C364.7 336.6 318.8 326.3 318.8 313.6V299.8H524V313.6Z" fill="#FBA700"/>
<path d="M421.4 322.8C478.064 322.8 524 312.503 524 299.8C524 287.097 478.064 276.8 421.4 276.8C364.736 276.8 318.8 287.097 318.8 299.8C318.8 312.503 364.736 322.8 421.4 322.8Z" fill="#FFCC00"/>
<path d="M421.4 313.3C466.356 313.3 502.8 306.45 502.8 298C502.8 289.55 466.356 282.7 421.4 282.7C376.444 282.7 340 289.55 340 298C340 306.45 376.444 313.3 421.4 313.3Z" fill="#FBA700"/>
<path opacity="0.3" d="M421.4 277.1C392.5 277.1 366.5 279.8 347.8 284.1C347.5 284.8 347.3 285.6 347.3 286.3C347.3 299 393.2 309.3 449.9 309.3C478.8 309.3 504.8 306.6 523.5 302.3C523.8 301.6 524 300.8 524 300.1C524 287.4 478.1 277.1 421.4 277.1Z" fill="#FF9E00"/>
<path d="M562.3 277.8C562.3 290.5 516.4 300.8 459.7 300.8C403 300.8 357.1 290.5 357.1 277.8V264H562.2V277.8H562.3Z" fill="#FBA700"/>
<path d="M459.8 287C516.465 287 562.4 276.703 562.4 264C562.4 251.297 516.465 241 459.8 241C403.136 241 357.2 251.297 357.2 264C357.2 276.703 403.136 287 459.8 287Z" fill="#FFCC00"/>
<path d="M459.8 277.5C504.756 277.5 541.2 270.65 541.2 262.2C541.2 253.75 504.756 246.9 459.8 246.9C414.844 246.9 378.4 253.75 378.4 262.2C378.4 270.65 414.844 277.5 459.8 277.5Z" fill="#FBA700"/>
<path opacity="0.3" d="M459.8 241.2C430.9 241.2 404.9 243.9 386.2 248.2C385.9 248.9 385.7 249.7 385.7 250.4C385.7 263.1 431.6 273.4 488.3 273.4C517.2 273.4 543.2 270.7 561.9 266.4C562.2 265.7 562.4 264.9 562.4 264.2C562.3 251.5 516.4 241.2 459.8 241.2Z" fill="#FF9E00"/>
<path d="M597.3 244.2C597.3 256.9 551.4 267.2 494.7 267.2C438 267.2 392.1 256.9 392.1 244.2V230.4H597.2V244.2H597.3Z" fill="#FBA700"/>
<path d="M494.7 253.4C551.365 253.4 597.3 243.103 597.3 230.4C597.3 217.697 551.365 207.4 494.7 207.4C438.036 207.4 392.1 217.697 392.1 230.4C392.1 243.103 438.036 253.4 494.7 253.4Z" fill="#FFCC00"/>
<path d="M494.7 243.9C539.656 243.9 576.1 237.05 576.1 228.6C576.1 220.15 539.656 213.3 494.7 213.3C449.744 213.3 413.3 220.15 413.3 228.6C413.3 237.05 449.744 243.9 494.7 243.9Z" fill="#FBA700"/>
<path opacity="0.3" d="M494.7 207.6C465.8 207.6 439.8 210.3 421.1 214.6C420.8 215.3 420.6 216.1 420.6 216.8C420.6 229.5 466.5 239.8 523.2 239.8C552.1 239.8 578.1 237.1 596.8 232.8C597.1 232.1 597.3 231.3 597.3 230.6C597.3 217.9 551.4 207.6 494.7 207.6Z" fill="#FF9E00"/>
<path d="M533.2 216.3C533.2 229 487.3 239.3 430.6 239.3C373.9 239.3 328 229 328 216.3V202.5H533.1V216.3H533.2Z" fill="#FBA700"/>
<path d="M430.6 225.5C487.264 225.5 533.2 215.203 533.2 202.5C533.2 189.797 487.264 179.5 430.6 179.5C373.936 179.5 328 189.797 328 202.5C328 215.203 373.936 225.5 430.6 225.5Z" fill="#FFCC00"/>
<path d="M430.6 216C475.556 216 512 209.15 512 200.7C512 192.25 475.556 185.4 430.6 185.4C385.644 185.4 349.2 192.25 349.2 200.7C349.2 209.15 385.644 216 430.6 216Z" fill="#FBA700"/>
<path opacity="0.3" d="M430.6 179.7C401.7 179.7 375.7 182.4 357 186.7C356.7 187.4 356.5 188.2 356.5 188.9C356.5 201.6 402.4 211.9 459.1 211.9C488 211.9 514 209.2 532.7 204.9C533 204.2 533.2 203.4 533.2 202.7C533.2 190.1 487.3 179.7 430.6 179.7Z" fill="#FF9E00"/>
<path d="M580 190.5C580 203.2 534.1 213.5 477.4 213.5C420.7 213.5 374.8 203.2 374.8 190.5V176.7H580V190.5Z" fill="#FBA700"/>
<path d="M477.4 199.7C534.064 199.7 580 189.403 580 176.7C580 163.997 534.064 153.7 477.4 153.7C420.736 153.7 374.8 163.997 374.8 176.7C374.8 189.403 420.736 199.7 477.4 199.7Z" fill="#FFCC00"/>
<path d="M477.4 190.2C522.356 190.2 558.8 183.35 558.8 174.9C558.8 166.45 522.356 159.6 477.4 159.6C432.444 159.6 396 166.45 396 174.9C396 183.35 432.444 190.2 477.4 190.2Z" fill="#FBA700"/>
<path opacity="0.3" d="M477.4 154C448.5 154 422.5 156.7 403.8 161C403.5 161.7 403.3 162.5 403.3 163.2C403.3 175.9 449.2 186.2 505.9 186.2C534.8 186.2 560.8 183.5 579.5 179.2C579.8 178.5 580 177.7 580 177C580 164.3 534.1 154 477.4 154Z" fill="#FF9E00"/>
<path d="M557.9 162.2C557.9 174.9 512 185.2 455.3 185.2C398.6 185.2 352.7 174.9 352.7 162.2V148.4H557.8V162.2H557.9Z" fill="#FBA700"/>
<path d="M455.3 171.4C511.964 171.4 557.9 161.103 557.9 148.4C557.9 135.697 511.964 125.4 455.3 125.4C398.636 125.4 352.7 135.697 352.7 148.4C352.7 161.103 398.636 171.4 455.3 171.4Z" fill="#FFCC00"/>
<path d="M455.3 161.9C500.256 161.9 536.7 155.05 536.7 146.6C536.7 138.15 500.256 131.3 455.3 131.3C410.344 131.3 373.9 138.15 373.9 146.6C373.9 155.05 410.344 161.9 455.3 161.9Z" fill="#FBA700"/>
<path d="M430.5 149.8C434.7 153.3 444.2 154.9 451.7 154.3C459.2 153.7 465.8 147.1 466.9 143.1C467.9 139.1 430.5 149.8 430.5 149.8Z" fill="#252935"/>
<path d="M432.3 90C439.3 90 449.6 93.5 452.3 95.2C455 96.8 468.4 115 465.6 123C463.2 129.8 449.1 131.9 449.1 131.9L437.8 137.1L419.1 132.1C419.1 132.1 406.3 130.6 403.5 127.4C400.7 124.2 407.8 100.2 409.6 97.9C411.4 95.6 423.2 90 432.3 90Z" fill="#0FC4B2"/>
<path d="M449.8 123.5L451.8 130.6L437 137.8L411.2 130.6L418.5 127.6L449.8 123.5Z" fill="url(#paint15_linear)"/>
<path d="M432 139.6C432 139.6 453 129.5 459.2 126.9C466.8 123.8 476.5 123.2 478.9 130.6C480.9 136.8 474.9 148.2 459.5 149.3C449 150.1 432 139.6 432 139.6Z" fill="#343A4D"/>
<path d="M418.9 56.9C418.9 56.9 414.5 60.9 416.8 70.8C419.1 80.7 429.3 76.3 429.3 76.3" stroke="#212431" stroke-width="0.6232" stroke-miterlimit="10"/>
<path d="M441.5 70.4C441.7 73.1 441.2 77.7 438.8 79.3C436.4 80.9 426.6 83.2 424.2 81.8C421.9 80.4 418.5 77.2 417.8 73.3C417.1 69.4 422.7 60.9 422.7 60.9L431.6 61.6L435.2 64.5L441.5 70.4Z" fill="#212431"/>
<path d="M427.1 90.7C427.1 92.1 429.4 93.3 432.2 93.3C435 93.3 437.3 92.2 437.3 90.7C437.3 90.3 436.8 87.4 436.6 84.7C436.4 81.2 427.6 83.2 427.5 85.2C427.6 86.9 427.1 90.3 427.1 90.7Z" fill="#8383FF"/>
<path d="M440 67.7C440.5 72.4 440.2 86.7 432.9 87.4C425.6 88.1 419.2 74.1 418.3 68C417.4 61.9 420.9 55.7 428 54.5C435.1 53.3 439.2 60.3 440 67.7Z" fill="#9494FF"/>
<path d="M440.7 72.7C441.97 72.7 443 71.3121 443 69.6C443 67.8879 441.97 66.5 440.7 66.5C439.43 66.5 438.4 67.8879 438.4 69.6C438.4 71.3121 439.43 72.7 440.7 72.7Z" fill="#9494FF"/>
<path d="M420.929 78.539C422.238 78.0983 422.841 76.3833 422.277 74.7084C421.713 73.0335 420.195 72.033 418.887 72.4737C417.578 72.9145 416.975 74.6295 417.539 76.3044C418.103 77.9793 419.621 78.9797 420.929 78.539Z" fill="#9494FF"/>
<path d="M409.4 51.2C409.4 45.9 413.5 41.5 418.6 41.5C423.7 41.5 427.8 45.8 427.8 51.2C427.8 51.4 427.8 51.6 427.8 51.7C434.1 51.2 441.1 55.8 441.1 66.5C439.2 66.3 439.9 70.5 439.7 71.2C439.3 72 438.4 69.4 438.6 67.9C436.8 68.7 433.8 69.3 430.6 67.9C425.3 65.6 423.4 64.1 423.4 64.1C423.4 64.1 424.2 69 422.2 71.8C422.5 73.9 422.5 76 422 75.3C420.9 73.8 419.1 71.9 417.9 73.2C416.9 68.9 416.4 64.4 417.3 60.7C412.8 60 409.4 56 409.4 51.2Z" fill="#212431"/>
<path d="M425.7 51.4C425.7 56.7 421.4 60.5 416.9 60.5C412.4 60.5 408.6 56.4 408.6 51.1C408.6 45.8 412.4 41.2 416.9 41.2C421.4 41.2 425.7 46.1 425.7 51.4Z" stroke="#212431" stroke-width="0.6232" stroke-miterlimit="10"/>
<path d="M407.1 51.3C407.1 46 410.9 41.4 415.4 41.4" stroke="#212431" stroke-width="0.6232" stroke-miterlimit="10" stroke-linecap="round"/>
<path d="M422.6 62.8C422.6 62.8 426.1 68.2 432.3 69.2C437.7 70.1 439.3 67.1 439.3 67.1" stroke="#212431" stroke-width="0.6232" stroke-miterlimit="10"/>
<path d="M435.5 89.6C435.5 89.6 437.1 91.9 436.1 92.3C435.1 92.7 432 95 432 95L431.4 92L435.5 89.6Z" fill="#8383FF"/>
<path d="M430.3 95.7C430.576 95.7 430.8 95.3866 430.8 95C430.8 94.6134 430.576 94.3 430.3 94.3C430.024 94.3 429.8 94.6134 429.8 95C429.8 95.3866 430.024 95.7 430.3 95.7Z" fill="#0BAA97"/>
<path d="M437 91.7C435.5 93.4 434.6 95.9 434.6 95.9L432 95.1C432 95.1 435.9 92.2 437 91.7Z" fill="#0BAA97"/>
<path d="M452.7 120C454.6 118.4 458.8 118.5 461.1 119.3C458.2 115.2 451.4 110.3 449.6 111.7C447.8 113 452.7 120 452.7 120Z" fill="url(#paint16_linear)"/>
<path d="M416.6 119.9C414.6 118.3 410.3 118.5 408 119.4C410.8 115.2 417.6 110.2 419.5 111.6C421.4 112.9 416.6 119.9 416.6 119.9Z" fill="url(#paint17_linear)"/>
<path d="M444.1 150.2C439.6 153.7 429.4 155.3 421.5 154.6C413.6 153.9 406.5 147.4 405.3 143.4C404.2 139.5 444.1 150.2 444.1 150.2Z" fill="#252935"/>
<path d="M467 142.9C468.7 141.7 474 137.5 475.7 134.8C476.8 133.1 477.6 126.5 478.1 126.3C479.4 126 481.3 128.6 481.8 129.8C482.5 131.7 484.2 134.4 484.1 135.7C483.8 139 480.3 142.4 478.1 146.9C477.4 147.9 477.7 152.8 476.8 153.9C473.1 158.4 468.3 151.2 461 152.3C453.8 153.3 446.8 154.1 431 153.5C418 153 404.9 148.6 404.2 139.4C402.8 118.7 449.1 140.3 452.8 142.1C460.1 145.6 464 145 467 142.9Z" fill="#9494FF"/>
<path d="M452.8 142.2C456.2 143.8 458.7 144.1 460.8 144.2C463 144.4 463.4 152.2 460.8 152.9C460.7 152.9 459 153 458.5 153.1C451.9 154 445.3 154.2 430.9 153.7C417.9 153.2 404.8 148.8 404.1 139.6C402.8 118.7 449.1 140.4 452.8 142.2Z" fill="#343A4D"/>
<path d="M418.7 151.8C416.6 153.1 414.7 154.1 412.9 154.3C411.6 154.4 409.3 153.5 407.5 152.7C406.4 152.2 403.9 149.9 404.2 148.3C404.3 148 406.2 147.5 408.2 147C408.2 147 411 147 413.2 149.4C415 151.3 418.7 151.8 418.7 151.8Z" fill="#8383FF"/>
<path d="M417.3 130.6H451.8C452.7 130.6 453.4 129.9 453.4 129V104.8C453.4 103.9 452.7 103.2 451.8 103.2H417.3C416.4 103.2 415.7 103.9 415.7 104.8V129.1C415.7 129.9 416.5 130.6 417.3 130.6Z" fill="#212431"/>
<path d="M418.4 129.4H451.1C451.7 129.4 452.3 128.9 452.3 128.2V127.1C452.3 126.5 451.8 125.9 451.1 125.9H418.4C417.8 125.9 417.2 126.4 417.2 127.1V128.2C417.3 128.9 417.8 129.4 418.4 129.4Z" fill="#2E3242"/>
<path d="M433.4 77.1C433.7 76.7 432.3 76.2 431.7 76.4C431.1 76.6 430.2 77.7 430.7 77.7C431.2 77.8 433.1 77.7 433.4 77.1Z" fill="#8383FF"/>
<path opacity="0.3" d="M546.2 444.9C545.8 444.9 545.5 444.8 545.1 444.8C544.9 444.8 544.7 444.8 544.5 444.7C544.4 444.7 544.2 444.7 544.1 444.7C544.5 444.4 544.7 440.1 544.7 440.1C544.7 439.6 544.2 439.1 543.3 438.6C539.6 436.3 525.8 434.7 514.1 434.3C508.2 434.1 505.4 434 500.8 434.1C477.9 434.2 459.5 436.8 459.5 440.1V443.7C459.5 444.1 459.8 444.5 460.5 445H374.8C365.6 445 358 449.7 357.2 455.6H352.3C341.3 455.6 332.2 461.6 332.2 468.8C332.2 473.2 335.4 495.2 340.3 511.8C333 511.2 324.7 510.8 317 510.6C308.2 510.4 303.9 510.3 297 510.4C262.6 510.5 235.1 513.1 235.1 516.4V520C235.1 520.4 235.6 520.8 236.5 521.3H108C94.2 521.3 82.8 526 81.5 531.9H74.1C57.5 531.9 44 537.9 44 545.1C44 552.4 57.6 558.3 74.1 558.3H331.2C345.7 558.3 357.9 553.7 360.7 547.7H570.1C579 547.7 586.9 545.8 591.7 542.8C597.7 542.6 603.2 542.2 608.1 541.9H722.8C730 541.9 736 539.7 737.6 536.7H739.6C748.7 536.7 756.2 533.4 756.2 529.4C756.2 525.4 748.7 522.1 739.6 522.1H655.6C650.4 522.1 645.8 523.1 642.8 524.8C640.3 523.7 634.4 522.6 626 521.8C625.9 521.8 625.8 521.8 625.8 521.8C625.3 521.8 624.8 521.7 624.3 521.7C624 521.7 623.8 521.7 623.5 521.6C623 521.6 622.5 521.5 622 521.5C621.7 521.5 621.5 521.5 621.2 521.4C620.7 521.4 620.2 521.3 619.6 521.3C619.3 521.3 619 521.3 618.7 521.2C618.2 521.2 617.6 521.1 617.1 521.1C616.8 521.1 616.5 521.1 616.2 521C616 521 615.8 521 615.6 521C616.2 520.7 616.5 520.3 616.5 520V516.4C616.5 515.9 615.8 515.4 614.4 514.9C608.8 512.6 588.2 511 570.6 510.6C561.8 510.4 557.5 510.3 550.6 510.4C543.5 510.4 536.7 510.6 530.4 510.8C536.7 496.9 504 489.6 505.2 485.6C505.2 485.6 546.3 444.9 546.2 444.9Z" fill="url(#paint18_linear)"/>
<path d="M101.5 353C98.0999 355.9 99.7999 361.4 104.3 361.8C104.4 361.8 104.5 361.8 104.6 361.8C114.9 362.8 125 360 125.5 359.2C127 357.1 128.1 352.7 122.5 352.4C102.7 351.6 101.5 353 101.5 353Z" fill="#FFB500"/>
<path d="M135.5 332.1C133.8 335.8 114.3 356.9 118.9 360.3C123.4 363.6 127.2 361.6 128 359.8C129.3 357.1 138.2 338.1 139.9 332.4" fill="#FFB500"/>
<path d="M629.9 493.6L226.2 462.6C219.2 446.3 203 434.9 184.1 434.9C158.8 434.9 138.3 455.4 138.3 480.7C138.3 506 158.8 526.5 184.1 526.5C185.8 526.5 187.4 526.4 189 526.2L614.7 527L629.9 493.6Z" fill="#00666B"/>
<path d="M611.4 377L640.7 496.5C645.5 515.9 629.6 530.5 605.1 527.6L170.6 475.3C148 472.6 142.3 456 156.7 439.7L246.8 337.8C254.5 329.1 272.9 323.6 288.2 325.3L577.7 356C593.8 357.6 608.9 366.9 611.4 377Z" fill="#00C7B1"/>
<path d="M397.1 349L349.1 471.4L199.7 453.8L287.7 337.3L397.1 349Z" fill="#73E5D5"/>
<path opacity="0.69" d="M349.3 393.4C332.4 402.9 314.6 410.8 296.2 417C268.6 426.4 240.8 433.3 212.5 436.8L199.7 453.7L349.1 471.3L389.7 367.7C376.7 377.2 363.1 385.6 349.3 393.4Z" fill="url(#paint19_linear)"/>
<path d="M424.5 448.4L419.1 471.1C418 475.6 412.4 478.9 406.5 478.2L395.1 476.9C389.3 476.2 385.7 471.9 387.1 467.4L394.1 444.9C395.3 440.9 400.7 438.2 406 438.8L416.4 440C421.8 440.6 425.4 444.4 424.5 448.4Z" fill="#E1E9FF"/>
<path d="M436.3 398.3L432.2 415.9C431.4 419.4 426.5 421.8 421.4 421.2L411.4 420.1C406.3 419.5 403.1 416.2 404.1 412.7L409.5 395.3C410.5 392.2 415.1 390.1 419.8 390.6L429 391.6C433.7 392.2 437 395.2 436.3 398.3Z" fill="#E1E9FF"/>
<path d="M445.6 358.8L442.3 372.8C441.6 375.6 437.4 377.5 432.9 377L424 376C419.5 375.5 416.5 372.8 417.3 370.1L421.6 356.2C422.4 353.7 426.4 352.1 430.7 352.5L439 353.4C443.2 353.9 446.2 356.3 445.6 358.8Z" fill="#E1E9FF"/>
<path d="M468.7 453.5L465.7 476.6C465.1 481.2 459.8 484.5 453.9 483.8L442.4 482.4C436.6 481.7 432.5 477.3 433.5 472.8L438.1 450C438.9 446 444 443.2 449.3 443.8L459.8 445C465.3 445.6 469.2 449.4 468.7 453.5Z" fill="#E1E9FF"/>
<path d="M475.3 402.6L473 420.4C472.5 423.9 468 426.4 462.8 425.8L452.8 424.7C447.7 424.1 444.1 420.7 444.8 417.2L448.4 399.5C449 396.4 453.4 394.2 458.2 394.8L467.5 395.8C472.2 396.5 475.7 399.5 475.3 402.6Z" fill="#E1E9FF"/>
<path d="M480.5 362.6L478.7 376.8C478.3 379.6 474.3 381.5 469.7 381L460.8 380C456.2 379.5 453 376.8 453.6 374L456.5 359.9C457 357.4 460.9 355.7 465.1 356.2L473.4 357.1C477.7 357.6 480.9 360 480.5 362.6Z" fill="#E1E9FF"/>
<path d="M516.4 459L516 482.5C515.9 487.2 511 490.6 505.1 489.9L493.5 488.5C487.6 487.8 483.1 483.4 483.5 478.7L485.6 455.5C486 451.4 490.7 448.6 496.1 449.2L506.7 450.4C512.1 451 516.5 454.8 516.4 459Z" fill="#E1E9FF"/>
<path d="M517.4 407.3L517.1 425.4C517 429 512.7 431.5 507.6 430.9L497.5 429.8C492.3 429.2 488.4 425.8 488.7 422.2L490.3 404.3C490.6 401.1 494.7 399 499.5 399.5L508.9 400.5C513.6 401 517.4 404.1 517.4 407.3Z" fill="#E1E9FF"/>
<path d="M518.1 366.6L517.8 381C517.7 383.8 513.9 385.8 509.3 385.3L500.3 384.3C495.7 383.8 492.2 381.1 492.4 378.2L493.7 363.9C493.9 361.3 497.6 359.7 501.9 360.1L510.3 361C514.7 361.6 518.2 364 518.1 366.6Z" fill="#E1E9FF"/>
<path d="M575.4 465.8L578.1 489.8C578.7 494.6 574.2 498 568.2 497.3L556.5 495.9C550.5 495.2 545.5 490.7 545.3 485.9L544.2 462.2C544 458 548.3 455.1 553.8 455.8L564.5 457C570 457.6 574.9 461.5 575.4 465.8Z" fill="#FF6C95"/>
<path d="M569.3 413.1L571.4 431.6C571.8 435.3 567.9 437.8 562.7 437.3L552.5 436.1C547.3 435.5 542.9 432 542.7 428.4L541.9 410.1C541.8 406.8 545.6 404.7 550.4 405.2L559.8 406.2C564.7 406.7 568.9 409.8 569.3 413.1Z" fill="#FFD147"/>
<path d="M564.6 371.6L566.3 386.3C566.6 389.2 563.1 391.2 558.5 390.7L549.4 389.7C544.8 389.2 540.9 386.4 540.8 383.5L540.2 369C540.1 366.4 543.5 364.7 547.8 365.1L556.2 366C560.5 366.5 564.3 369 564.6 371.6Z" fill="#00666B"/>
<path d="M273.9 337.2L184.3 449.3C183.3 450.6 181 451.5 179.3 451.3C177.6 451.1 177.1 449.9 178.1 448.5L269.3 336.6C269.9 335.9 271.4 335.4 272.6 335.6C273.9 335.8 274.5 336.5 273.9 337.2Z" fill="#00666B"/>
<path d="M284.9 362.1C279.4 364.1 274.1 366.2 269 368.3C301.2 376 335.9 393.6 330.9 398.8C326.4 403.5 310.5 409.9 282.9 414.6C284.6 418.6 286.9 422.6 289 426.3C321.4 431.2 363.7 409.8 369.6 402.8C375.6 395.8 324.4 361.4 284.9 362.1Z" fill="#00666B"/>
<path d="M192.4 432.5L256.8 351.8C256.8 351.8 285.8 299.9 241 268.3C203 241.6 180.9 258.2 180.9 258.2L108.5 344.7C108.5 344.7 157.5 331.3 185.7 360.5C213.8 389.7 192.4 432.5 192.4 432.5Z" fill="#E1E9FF"/>
<path d="M192.658 273.152L150.234 324.494L151.313 325.386L193.737 274.044L192.658 273.152Z" fill="white"/>
<path d="M205.104 273.185L162.98 324.512L164.062 325.4L206.187 274.073L205.104 273.185Z" fill="white"/>
<path d="M203.637 291.091L171.448 330.261L172.529 331.15L204.719 291.979L203.637 291.091Z" fill="white"/>
<path d="M229.894 309.13L199.106 349.787L200.222 350.633L231.01 309.975L229.894 309.13Z" fill="white"/>
<path d="M225.251 299.095L192.557 342.325L193.674 343.17L226.367 299.94L225.251 299.095Z" fill="white"/>
<path d="M116.5 488.3C117.7 473.4 121.2 456.8 121.2 456.8L106.5 452.4C106.5 452.4 102.8 452.4 106.9 482.8C97.7 494.9 95.2 522.2 96.5 532.2C96.5 533.2 96.8 534.3 97.4 535.2C99 537.7 102 541.4 105.3 540.3C103.6 538.9 102.5 537.6 101.9 536.7C101.3 535.9 101.1 534.9 101.1 533.9L101.2 531.6C103.5 524.2 115.4 500.9 116.5 488.3Z" fill="#736AFF"/>
<path d="M124.5 336.3C125 336.9 126.9 338.3 126.7 339.1C126.5 340 124.3 340.5 124.3 340.5L124.5 336.3Z" fill="#7676E5"/>
<path d="M111.1 316C111.2 316 111.3 316.1 111.4 316.2C111.5 316.3 111.4 316.5 111.2 316.6C109.9 317.1 108.8 319.5 108.1 323.4C107.5 326.4 107.4 329.3 107.4 329.3C107.4 329.5 107.3 329.6 107.1 329.6C106.9 329.6 106.8 329.5 106.8 329.3C106.9 328.8 107.4 317.5 111.1 316C111 316 111.1 316 111.1 316Z" fill="#212431"/>
<path d="M119.7 354.5C119.5 353.8 118.9 350.9 119.4 349.5C120.7 349.5 123 349.8 123.4 349.3C126.9 345.8 125.1 333 122.3 326.5C118.9 318.7 102.2 319.3 104.8 333.5C107 346.2 108.2 354.8 108.4 356.6C107 359.2 110.7 361.8 108.7 363.2C107 364.4 107.3 367 109.2 367.8C114.9 370.1 112.8 370.7 119.6 369.4C124.3 368.5 127.6 365.8 129.6 363.5C130.9 362.1 130.2 359.8 128.3 359.3C124.4 358.2 121.4 356 119.7 354.5Z" fill="#8383FF"/>
<path d="M120.3 320.1C126 322.5 128.8 327.8 123.7 333.6C120.3 337.5 122.3 340.9 122.3 340.9C122.3 340.9 121.8 339.7 123.7 341.1C125.6 342.5 127.7 344.4 127.6 345.7" stroke="#212431" stroke-width="0.4415" stroke-miterlimit="10" stroke-linecap="round"/>
<path d="M125.4 347.5L122.5 343.8C122.5 343.8 126.1 345.7 126.9 346.4C127.5 344.3 125.3 344.1 122.6 339.3C119.9 334.4 126.7 334.1 125.4 326.1C124 318.1 112.9 316.2 107.7 317.6C89.6002 322.5 96.5002 344.1 99.9002 349.3C102.8 353.8 120.1 350 125.4 347.5Z" fill="#212431"/>
<path d="M107.2 441.4C107.2 441.4 110.7 462.2 115.5 484.4C110.5 497.8 118.1 535.2 118.3 535.1C118.9 534.6 121.5 537.8 121.5 537.8C121.5 537.8 127.1 504.8 128.3 489.9C129.5 475 129.8 456.8 129.8 456.8L107.2 441.4Z" fill="#8383FF"/>
<path d="M117.6 533C117.6 533 115.5 534.8 115.9 537C116.3 539.3 116.8 544.6 116.8 544.6H119L118.9 539.7C118.9 539.4 123.5 544.6 124.3 544.6H135.7C135.7 544.6 136.5 541.3 129.8 540.2C123.1 539.1 117.6 533 117.6 533Z" fill="#343A4D"/>
<path d="M96.4001 531.8C96.4001 531.8 93.5001 532.1 93.0001 534.3C92.5001 536.5 91.1001 541 91.1001 541L92.7001 542.3L94.9001 537.9C94.9001 537.9 99.7001 544.4 100.5 544.7H113C113 544.7 113 540.6 105.2 540.4C98.0001 540.1 96.4001 531.8 96.4001 531.8Z" fill="#343A4D"/>
<path d="M165 298.9C164.4 298.5 163.6 298.4 163 298.8C161.5 299.8 161.2 301.3 161.2 301.3C160.3 302.4 159.9 303.7 160 305.1L159.5 309.8L140.5 341.8L149.2 348.3L163 312.3L166.3 306.6C166.2 306.5 170.9 303.4 165 298.9Z" fill="#8383FF"/>
<path d="M133 368.3C133 368 132.9 367.8 132.8 367.6C141.6 356.2 149.1 348.3 149.1 348.3L141.6 339.8L124.6 355.9H119.6C119.6 355.9 112.9 351.5 107 357.5C104.8 359.7 103.4 365.7 104.9 372.1C108.9 389.6 105.8 398.9 105.8 398.9L128.7 407.5C128.7 407.5 129.2 392.3 129.6 381.6C129.7 379.5 130.4 377.5 131.5 375.7C132.7 373.6 133.5 371.1 133 368.3Z" fill="#FFCC00"/>
<path d="M129.1 398.4C129.1 398.4 132.2 413.9 132.2 423.2C132.2 428.3 131 460.3 131 460.3C131 460.3 106.4 461.9 102.1 461.9C101.1 435.7 96 435 96 422.7C96 417.4 96.8 411.3 98.8 407.5C100.3 404.8 101.2 402.8 101.8 399L101.9 398.5L129.1 398.4Z" fill="#FF6C95"/>
<path d="M159.6 306.6C159.6 306.6 159.8 301 160.1 300.3C160.4 299.6 162 303.1 162 303.8C162 304.6 159.6 306.6 159.6 306.6Z" fill="#8383FF"/>
<path d="M119.3 352.5C117.1 353 115.2 354 111.4 353.8C107.6 353.6 103 351.7 101.5 353C95.8001 357.8 96.6001 368.8 98.8001 372.3C102.7 384.1 100.6 398.4 101.1 399.7C101.6 401 115.1 400 119.6 398.8C124.1 397.6 127.7 397.8 128.9 398.8C129.8 399.5 128.5 389.4 131 381.5C132.6 370.1 131.9 374.6 134.4 362.4C135.1 358.8 134.1 359 137 354.5C129.2 348.5 129.3 350 119.3 352.5Z" fill="#FFCC00"/>
<path d="M233.7 58.8L218.4 65.8L233.3 73L287.1 93.5L233.7 58.8Z" fill="#4F3FF7"/>
<path d="M218.4 65.8L240.8 81.5L237.7 74.7L218.4 65.8Z" fill="#6249FF"/>
<path d="M233.7 58.8L239.1 44.3L287.1 93.5L233.7 58.8Z" fill="#6A5DFF"/>
<path d="M287.1 93.5L233.3 73L226.5 94.6L287.1 93.5Z" fill="#6A5DFF"/>
<path d="M213.7 81.5C213.6 81.4 213.6 81.2 213.6 81C213.6 80.3 214.1 79.7 214.8 79.7C217 79.6 219.3 79.7 221.5 80C222.2 80.1 222.7 80.7 222.6 81.5C222.5 82.2 221.9 82.7 221.1 82.6C219.1 82.3 217 82.2 214.9 82.3C214.4 82.2 213.9 81.9 213.7 81.5Z" fill="#E1E9FF"/>
<path d="M140.5 203.2C140.5 203.2 140.5 203.1 140.5 203.2C138.9 199.1 138.1 194.7 138 190C138 189.3 138.5 188.7 139.3 188.7C140 188.7 140.6 189.3 140.6 190C140.7 194.4 141.5 198.5 142.9 202.3C143.2 203 142.8 203.7 142.2 204C141.5 204.1 140.8 203.8 140.5 203.2ZM138.6 182.7C138.5 182.5 138.5 182.2 138.5 182C139.2 177.6 140.5 173.3 142.3 169.3C142.6 168.7 143.4 168.4 144 168.7C144.6 169 144.9 169.8 144.6 170.4C142.8 174.2 141.6 178.3 141 182.5C140.9 183.2 140.2 183.7 139.5 183.6C139.2 183.4 138.8 183.1 138.6 182.7ZM146.2 163.6C146 163.2 146 162.7 146.3 162.3L146.7 161.8C149.1 158.5 151.9 155.3 155 152.3C155.5 151.8 156.3 151.8 156.8 152.4C157.3 152.9 157.3 153.7 156.7 154.2C153.7 157 151 160.1 148.7 163.3L148.4 163.8C148 164.4 147.2 164.5 146.6 164.1C146.4 164 146.3 163.8 146.2 163.6ZM160.7 148.8C160.5 148.3 160.6 147.6 161.1 147.2C164.4 144.7 168.1 142.4 172.2 140.1C172.8 139.8 173.6 140 173.9 140.6C174.2 141.2 174 142 173.4 142.3C169.5 144.5 165.8 146.8 162.6 149.2C162 149.6 161.2 149.5 160.8 148.9C160.8 149 160.7 148.9 160.7 148.8ZM178.5 138.3C178.2 137.7 178.5 136.9 179.1 136.6C179.4 136.5 179.7 136.3 180 136.2C179 134.3 178.2 132.3 177.6 130.3C177.4 129.6 177.8 128.9 178.4 128.7C179.1 128.5 179.8 128.8 180 129.5C180.6 131.4 181.4 133.3 182.3 135.2C185 134 187.9 132.8 191.1 131.5C191.8 131.2 192.5 131.6 192.8 132.2C193.1 132.9 192.7 133.6 192.1 133.9C189 135.1 186.2 136.3 183.6 137.4C184.3 138.5 185 139.6 185.7 140.6C186.1 141.2 186 142 185.4 142.4C184.8 142.8 184 142.7 183.6 142.1C182.7 140.9 181.9 139.7 181.2 138.4C180.9 138.6 180.5 138.7 180.2 138.9C179.6 139.3 178.8 139 178.5 138.3ZM176 122.8C175.9 122.7 175.9 122.5 175.9 122.4C175.6 119.6 175.7 116.8 176 114.1C176.2 112.4 176.6 110.7 177.1 109.1C177.3 108.4 178 108 178.7 108.2C179.4 108.4 179.8 109.1 179.6 109.8C179.2 111.3 178.8 112.9 178.6 114.5C178.3 117 178.2 119.6 178.5 122.2C178.6 122.9 178.1 123.5 177.4 123.6C176.7 123.6 176.2 123.3 176 122.8ZM188.6 147.8C188.4 147.3 188.5 146.8 188.8 146.4C189.3 145.9 190.1 145.9 190.6 146.3C193.7 149.2 197.2 151.6 201 153.3C201.6 153.6 201.9 154.3 201.6 155C201.3 155.6 200.5 155.9 199.9 155.6C195.9 153.8 192.2 151.3 188.8 148.1C188.8 148.1 188.7 147.9 188.6 147.8ZM180.1 102.8C179.9 102.4 179.9 102 180.1 101.7C182.2 97.8 185 94.3 188.3 91.2C188.8 90.7 189.6 90.7 190.1 91.3C190.6 91.8 190.6 92.6 190 93.1C186.9 96 184.3 99.4 182.3 103C182 103.6 181.2 103.9 180.6 103.5C180.4 103.3 180.2 103 180.1 102.8ZM206.7 157.4C206.6 157.2 206.6 156.9 206.6 156.6C206.7 155.9 207.4 155.5 208.1 155.6C209.2 155.8 210.2 156 211.3 156.1C214.3 156.4 217.4 156.1 220.4 155.3C221.1 155.1 221.8 155.5 222 156.2C222.2 156.9 221.8 157.6 221.1 157.8C217.9 158.7 214.4 159 211.1 158.7C210 158.6 208.8 158.4 207.7 158.2C207.2 158 206.9 157.7 206.7 157.4ZM197.8 130.5V130.4C197.6 129.7 197.9 129 198.6 128.8C203.6 127.1 207.8 126.2 211.6 125.9C212.3 125.9 212.9 126.4 213 127.1C213 127.8 212.5 128.4 211.8 128.5C208.2 128.7 204.3 129.6 199.5 131.2C198.7 131.4 198 131.1 197.8 130.5ZM194.2 87.8C193.9 87.2 194.1 86.5 194.7 86.2C196.4 85.1 198.2 84.1 200 83.3C202.2 82.3 204.5 81.5 206.9 80.9C207.6 80.7 208.3 81.1 208.5 81.8C208.7 82.5 208.3 83.2 207.6 83.4C205.4 84 203.3 84.7 201.2 85.7C199.5 86.5 197.8 87.4 196.2 88.4C195.6 88.8 194.8 88.6 194.4 88C194.2 87.9 194.2 87.9 194.2 87.8ZM226.5 153.6C226.3 153.1 226.4 152.4 226.9 152C229.4 150.1 231 147.7 231.5 144.9C231.7 143.9 231.7 142.9 231.6 141.9C231.5 141.2 232 140.6 232.7 140.5C233.4 140.4 234 140.9 234.1 141.6C234.2 142.8 234.2 144.1 233.9 145.3C233.3 148.7 231.3 151.7 228.4 154C227.8 154.4 227 154.3 226.6 153.8C226.6 153.8 226.6 153.7 226.5 153.6ZM218.1 128.3C218 128 217.9 127.8 218 127.5C218.2 126.8 218.9 126.4 219.6 126.6C224.1 127.7 228.2 130.4 231 134C231.4 134.6 231.3 135.4 230.8 135.8C230.2 136.2 229.4 136.1 229 135.6C226.6 132.5 222.9 130.1 219 129.1C218.6 128.9 218.3 128.6 218.1 128.3Z" fill="#E1E9FF"/>
<path d="M144.2 210.1C143.9 209.6 144.1 208.9 144.6 208.5C145.2 208.1 146 208.2 146.4 208.8C147.6 210.5 149 212 150.5 213.4C151 213.9 151.1 214.7 150.6 215.2C150.1 215.7 149.3 215.8 148.8 215.3C147.1 213.8 145.6 212.1 144.3 210.3C144.3 210.3 144.3 210.2 144.2 210.1Z" fill="#E1E9FF"/>
<path d="M631.2 385.9C631.2 385.9 629.6 388.2 626.5 389.3C623.4 390.4 600 385.5 600 385.5L595.3 386C592.8 386.7 590.2 386.5 587.9 385.6L581 382.9L621.3 382.1L636.7 363L631.2 385.9Z" fill="#736AFF"/>
<path d="M644.8 341.9C644.8 341.9 657.1 348.8 659.2 356.6C661.4 364.4 659.2 391.1 659.2 391.1H639.6C639.6 391.1 634 380.9 629.6 371.7C628.3 368.9 628.2 365.7 629.5 362.9C632.7 355.7 637.5 345.7 637.5 345.7L644.8 341.9Z" fill="#FF6C95"/>
<path d="M634.6 520.4L632.9 524.8C632.5 526 631.7 527 630.6 527.7C629.4 528.5 627.5 529.5 624.8 530.4C628.2 533.3 633.6 530.3 636.7 528.1C638.2 527.1 639.3 525.5 639.7 523.7L640.4 520.4H634.6Z" fill="#736AFF"/>
<path d="M640.1 522.7C640.1 522.7 642.4 524.5 642 526.8C641.6 529.1 641 534.5 641 534.5H638.6L638.7 529.5C638.7 529.2 633.6 534.5 632.8 534.5H620.3C620.3 534.5 619.5 531.1 626.8 530C634.1 528.9 640.1 522.7 640.1 522.7Z" fill="#053C5E"/>
<path d="M656.5 520.4L654.8 524.8C654.4 526 653.6 527 652.5 527.7C651.3 528.5 649.4 529.5 646.7 530.4C650.1 533.3 655.5 530.3 658.6 528.1C660.1 527.1 661.2 525.5 661.6 523.7L662.3 520.4H656.5Z" fill="#9690FF"/>
<path d="M661.9 522.7C661.9 522.7 664.2 524.5 663.8 526.8C663.4 529.1 662.8 534.5 662.8 534.5H660.4L660.5 529.5C660.5 529.2 655.4 534.5 654.6 534.5H642C642 534.5 641.2 531.1 648.5 530C655.9 528.9 661.9 522.7 661.9 522.7Z" fill="#053C5E"/>
<path d="M639.7 391.5C639.7 391.5 622.5 413.9 635.4 464.6C634.1 486.5 634.1 521.2 634.1 521.2H640.2C640.2 521.2 655.3 483.8 650.2 464.6C649 445.6 653.7 391.2 653.7 391.2L639.7 391.5Z" fill="#1B1B7A"/>
<path d="M659.2 391.1C659.2 391.1 669.4 399.3 669.4 411.4C669.4 420.9 664.8 440.7 662.2 453.6C661.2 458.3 662.2 463.1 663.5 467.7C668.9 486.4 662.3 521 662.3 521H655.6C655.6 521 652.1 504.9 644.6 463.8C636 416.6 639.6 391 639.6 391H659.2V391.1Z" fill="#202094"/>
<path d="M579.9 382.9H611.9V380.5H581.3L567.8 354.7L565.7 355.8L579.9 382.9Z" fill="url(#paint20_linear)"/>
<path d="M653.7 363.8C653.7 363.8 643.5 387.6 638.6 387.6C633.7 387.6 606.5 376 606.5 376L607.2 371.9L635 376.6C635 376.6 637.5 370 639.2 362.5C639.9 359.5 642.2 357.1 645.2 356.5C651.6 355.3 653.7 363.8 653.7 363.8Z" fill="#9690FF"/>
<path d="M591.9 374C591.8 373.4 592.2 372.9 592.7 372.6L597.9 370.3C599.2 369.7 600.6 369.7 602 370.1L607.2 371.8H607.9L608.5 376.6C607.5 376.2 606.9 376 606.9 376L603.6 374.8C603.6 374.8 596.5 380.9 593.9 375.4C593.1 380.8 591.6 380.2 591.6 380.2L591.9 374Z" fill="#9690FF"/>
<path d="M624.3 322C624.3 322 624.5 324.9 625 326.1C625.5 327.3 625.7 327.6 625.7 328C625.7 328.4 625.3 330.2 623.9 332C623.4 332.6 624.6 333.7 625.4 333.8C626.2 333.8 625.9 335.4 626.6 336.4C627.3 337.5 626.4 338.5 627.4 339.8C628.1 340.6 630.5 340.5 632 339.8C633.5 339.1 634.1 338.5 635.8 342.5C637.2 345.6 637.4 346.5 637.4 346.5L642.3 344.1C642.3 344.1 642.4 344.5 644.6 340.5C646.8 336.6 647 337.5 647 337.5C647 337.5 644.4 337.5 643 335.5C641.6 333.6 640.9 331.7 640.1 329.4C639.3 327.1 638.9 326.4 634.7 326.1C630.4 325.8 626.6 326.8 624.3 322Z" fill="#8181FD"/>
<path d="M640.4 330.7C640 331 639.6 331 639.2 331C638.7 331.9 638.7 333.6 638.5 334.5C638 337.1 632.5 339.8 630.3 340.3C630.9 340.2 631.5 340 632 339.8C633.1 339.3 633.6 338.9 635.1 339.9C636.8 339.1 640 336.8 640.4 330.7Z" fill="#6F6FF5"/>
<path d="M636.5 310.3C630.4 310.3 626.3 312.2 623.4 318.2C620.6 324.1 625 326.2 625 326.2C624.5 325 624.3 322.1 624.3 322.1C626.6 326.8 630.4 325.9 634.7 326.2C638.9 326.5 639.3 327.2 640.1 329.5C640.9 331.8 641.6 333.6 643 335.6C643.9 337.1 649.5 330.9 648.4 322.7C647.3 314.7 642.6 310.3 636.5 310.3Z" fill="#202094"/>
<path d="M648.7 330.8C648.6 330.9 648.5 330.9 648.4 330.8C648.3 330.7 648.2 330.5 648.3 330.4C648.3 330.4 650 327.8 649.2 321.6C648.1 312.3 639.6 310 639.5 310C639.4 310 639.3 309.8 639.3 309.7C639.3 309.6 639.5 309.5 639.6 309.5C639.7 309.5 648.5 311.9 649.7 321.6C650.5 328 648.8 330.6 648.7 330.8C648.8 330.7 648.7 330.8 648.7 330.8Z" fill="#202094"/>
<path d="M643.9 320.2C643.9 320.2 643.8 320.2 643.8 320.3C643.7 320.3 643.5 320.3 643.5 320.1C643.5 320 641.8 314.3 637.4 312.2C635.1 311.1 632.5 311.1 629.7 312.3C623.3 314.9 621.9 319 621.9 322C621.9 322.2 621.8 322.3 621.6 322.3C621.4 322.3 621.3 322.2 621.3 322C621.3 318.8 622.8 314.4 629.4 311.7C632.4 310.5 635.2 310.5 637.6 311.6C642.2 313.8 644 319.6 644 319.9C644 320 643.9 320.2 643.9 320.2Z" fill="#202094"/>
<path d="M646.2 325.7C646.8 328.1 643.4 337.4 651.2 337.6C658.9 337.9 664.3 340.2 666.5 351.5C668.8 362.8 662.5 367.8 657.3 367.2C654.9 366.9 653.2 364.8 652.2 362.6C651.1 360.4 650.7 357.9 650.7 355.4C650.7 353.3 650.5 350.1 649.2 348.4C647.2 345.7 641.5 345.1 639.9 337.2C638.3 329.3 646.2 325.7 646.2 325.7Z" fill="#202094"/>
<path d="M640.4 331.5C640.4 331.5 641.1 334.1 642.8 334.2C644 334.2 645.1 333.9 645.7 333.7C646 333.6 646.3 333.6 646.6 333.8C647.2 334.1 648.5 337 655.4 335.1C656.9 334.7 659 334.7 661.1 335.9C665.3 338.4 666 340.7 666 340.7L665.2 341.6C665.2 341.6 662 335.1 655.9 335.7C653.4 335.9 651.2 337.2 647.9 335.5C647.6 335.3 647 334.8 646.7 334.7C646.5 334.6 646.2 334.6 646 334.7C644.9 335.1 641.3 336 639.8 333.4C639.5 332.8 640.3 331.3 640.4 331.5Z" fill="#FBB41F"/>
<defs>
<linearGradient id="paint0_linear" x1="685.59" y1="94.4014" x2="430.717" y2="317.415" gradientUnits="userSpaceOnUse">
<stop stop-color="#BFC8E2"/>
<stop offset="1" stop-color="#E3EAFF"/>
</linearGradient>
<linearGradient id="paint1_linear" x1="689.387" y1="98.7405" x2="434.513" y2="321.754" gradientUnits="userSpaceOnUse">
<stop stop-color="#BFC8E2"/>
<stop offset="1" stop-color="#E3EAFF"/>
</linearGradient>
<linearGradient id="paint2_linear" x1="692.627" y1="102.443" x2="437.753" y2="325.457" gradientUnits="userSpaceOnUse">
<stop stop-color="#BFC8E2"/>
<stop offset="1" stop-color="#E3EAFF"/>
</linearGradient>
<linearGradient id="paint3_linear" x1="695.309" y1="105.509" x2="440.436" y2="328.523" gradientUnits="userSpaceOnUse">
<stop stop-color="#BFC8E2"/>
<stop offset="1" stop-color="#E3EAFF"/>
</linearGradient>
<linearGradient id="paint4_linear" x1="682.802" y1="91.215" x2="427.929" y2="314.229" gradientUnits="userSpaceOnUse">
<stop stop-color="#BFC8E2"/>
<stop offset="1" stop-color="#E3EAFF"/>
</linearGradient>
<linearGradient id="paint5_linear" x1="682.93" y1="91.3608" x2="428.057" y2="314.375" gradientUnits="userSpaceOnUse">
<stop stop-color="#BFC8E2"/>
<stop offset="1" stop-color="#E3EAFF"/>
</linearGradient>
<linearGradient id="paint6_linear" x1="680.918" y1="89.0618" x2="426.045" y2="312.076" gradientUnits="userSpaceOnUse">
<stop stop-color="#BFC8E2"/>
<stop offset="1" stop-color="#E3EAFF"/>
</linearGradient>
<linearGradient id="paint7_linear" x1="678.667" y1="86.4897" x2="423.794" y2="309.503" gradientUnits="userSpaceOnUse">
<stop stop-color="#BFC8E2"/>
<stop offset="1" stop-color="#E3EAFF"/>
</linearGradient>
<linearGradient id="paint8_linear" x1="675.137" y1="82.4553" x2="420.264" y2="305.469" gradientUnits="userSpaceOnUse">
<stop stop-color="#BFC8E2"/>
<stop offset="1" stop-color="#E3EAFF"/>
</linearGradient>
<linearGradient id="paint9_linear" x1="679.098" y1="86.9815" x2="424.225" y2="309.995" gradientUnits="userSpaceOnUse">
<stop stop-color="#BFC8E2"/>
<stop offset="1" stop-color="#E3EAFF"/>
</linearGradient>
<linearGradient id="paint10_linear" x1="682.342" y1="90.6891" x2="427.469" y2="313.703" gradientUnits="userSpaceOnUse">
<stop stop-color="#BFC8E2"/>
<stop offset="1" stop-color="#E3EAFF"/>
</linearGradient>
<linearGradient id="paint11_linear" x1="684.906" y1="93.6195" x2="430.032" y2="316.633" gradientUnits="userSpaceOnUse">
<stop stop-color="#BFC8E2"/>
<stop offset="1" stop-color="#E3EAFF"/>
</linearGradient>
<linearGradient id="paint12_linear" x1="673.64" y1="80.7437" x2="418.767" y2="303.757" gradientUnits="userSpaceOnUse">
<stop stop-color="#BFC8E2"/>
<stop offset="1" stop-color="#E3EAFF"/>
</linearGradient>
<linearGradient id="paint13_linear" x1="672.204" y1="79.103" x2="417.331" y2="302.116" gradientUnits="userSpaceOnUse">
<stop stop-color="#BFC8E2"/>
<stop offset="1" stop-color="#E3EAFF"/>
</linearGradient>
<linearGradient id="paint14_linear" x1="671.684" y1="78.5089" x2="416.811" y2="301.523" gradientUnits="userSpaceOnUse">
<stop stop-color="#BFC8E2"/>
<stop offset="1" stop-color="#E3EAFF"/>
</linearGradient>
<linearGradient id="paint15_linear" x1="451.949" y1="130.648" x2="411.305" y2="130.648" gradientUnits="userSpaceOnUse">
<stop offset="0.0737968" stop-color="#0BAA97"/>
<stop offset="1" stop-color="#0BAA97" stop-opacity="0"/>
</linearGradient>
<linearGradient id="paint16_linear" x1="451.836" y1="121.179" x2="456.225" y2="114.289" gradientUnits="userSpaceOnUse">
<stop offset="0.0737968" stop-color="#0BAA97"/>
<stop offset="1" stop-color="#0BAA97" stop-opacity="0"/>
</linearGradient>
<linearGradient id="paint17_linear" x1="416.377" y1="122.233" x2="411.011" y2="116.13" gradientUnits="userSpaceOnUse">
<stop offset="0.0737968" stop-color="#0BAA97"/>
<stop offset="1" stop-color="#0BAA97" stop-opacity="0"/>
</linearGradient>
<linearGradient id="paint18_linear" x1="44" y1="496.189" x2="756.163" y2="496.189" gradientUnits="userSpaceOnUse">
<stop offset="0.6658" stop-color="#6249FF"/>
<stop offset="1" stop-color="#483DCC" stop-opacity="0"/>
</linearGradient>
<linearGradient id="paint19_linear" x1="294.91" y1="441.342" x2="449.947" y2="396.123" gradientUnits="userSpaceOnUse">
<stop stop-color="white"/>
<stop offset="0.333" stop-color="#FCFEFE"/>
<stop offset="0.5507" stop-color="#F4FAFC"/>
<stop offset="0.7354" stop-color="#E5F3F8"/>
<stop offset="0.9007" stop-color="#D0EAF2"/>
<stop offset="1" stop-color="#BFE3EE"/>
</linearGradient>
<linearGradient id="paint20_linear" x1="611.921" y1="368.771" x2="565.679" y2="368.771" gradientUnits="userSpaceOnUse">
<stop stop-color="#DFEFEA"/>
<stop offset="1" stop-color="#BFE3EE"/>
</linearGradient>
</defs>
</svg>
