<svg width="720" height="350" viewBox="0 0 720 350" fill="none" xmlns="http://www.w3.org/2000/svg">
<rect width="720" height="350" fill="white"/>
<path opacity="0.3" d="M640.792 276.007H597.56C594.961 276.007 592.498 276.504 590.993 277.298C589.762 276.801 586.616 276.305 582.375 275.908H582.238C581.964 275.908 581.691 275.908 581.554 275.809C581.417 275.809 581.28 275.809 581.143 275.809C580.87 275.809 580.596 275.809 580.323 275.71C580.186 275.71 580.049 275.71 579.912 275.71C579.638 275.71 579.365 275.71 579.091 275.61C578.954 275.61 578.818 275.61 578.681 275.61C578.407 275.61 578.134 275.61 577.86 275.511C577.723 275.511 577.586 275.511 577.45 275.511C577.313 275.511 577.176 275.511 577.176 275.511C577.45 275.313 577.586 275.213 577.586 275.015V273.328C577.586 273.129 577.176 272.832 576.492 272.633C573.619 271.541 562.948 270.847 553.919 270.648C549.404 270.549 547.215 270.45 543.658 270.549C526.01 270.549 511.782 271.839 511.782 273.328V275.015C511.782 275.213 512.055 275.412 512.466 275.61H448.44C448.303 275.61 448.303 275.61 448.166 275.61C447.893 275.61 447.619 275.61 447.345 275.511C447.208 275.511 447.072 275.511 446.935 275.511C446.798 275.511 446.661 275.511 446.661 275.511C446.935 275.313 447.072 275.213 447.072 275.015V273.328C447.072 273.129 446.661 272.832 445.977 272.633C443.104 271.541 432.433 270.847 423.404 270.648C418.889 270.549 416.7 270.45 413.143 270.549C395.495 270.549 381.267 271.839 381.267 273.328V275.015C381.267 275.213 381.541 275.412 381.951 275.61H315.873C308.759 275.61 302.876 277.794 302.329 280.573H298.498C290.016 280.573 283.039 283.351 283.039 286.726C283.039 288.81 285.502 299.032 289.332 306.773C283.723 306.475 277.293 306.277 271.41 306.277C264.57 306.178 261.287 306.079 255.951 306.178C229.41 306.178 208.205 307.468 208.205 308.957V310.644C208.205 310.842 208.616 311.041 209.3 311.239H110.388C99.7166 311.239 90.9609 313.423 90.0033 316.201H84.2573C71.5342 316.201 61 318.98 61 322.355C61 325.729 71.3974 328.508 84.2573 328.508H282.492C293.71 328.508 303.013 326.424 305.202 323.546H466.635C473.476 323.546 479.495 322.652 483.326 321.263C487.977 321.164 492.218 320.965 495.912 320.866H584.427C589.899 320.866 594.687 319.874 595.782 318.484H597.287C604.264 318.484 610.147 316.995 610.147 315.11C610.147 313.224 604.401 311.735 597.287 311.735H532.44C528.472 311.735 524.915 312.232 522.59 313.026C520.674 312.529 516.16 312.033 509.593 311.636H509.456C509.046 311.636 508.772 311.636 508.362 311.537C508.225 311.537 507.951 311.537 507.814 311.537C507.404 311.537 506.994 311.537 506.583 311.438C506.309 311.438 506.173 311.438 505.899 311.438C505.489 311.438 505.078 311.438 504.668 311.338C504.394 311.338 504.257 311.338 503.984 311.338C503.573 311.338 503.163 311.338 502.752 311.239C502.479 311.239 502.342 311.239 502.068 311.239C501.932 311.239 501.795 311.239 501.521 311.239C501.932 311.041 502.205 310.941 502.205 310.743V309.056C502.205 308.857 501.658 308.56 500.564 308.361C496.186 307.269 480.316 306.575 466.772 306.376C459.932 306.277 456.648 306.178 451.313 306.277C445.84 306.277 440.642 306.376 435.717 306.475C440.642 300.025 415.332 296.65 416.29 294.765H552.551C557.065 294.765 561.169 293.871 563.632 292.482C566.642 292.383 569.515 292.184 572.114 292.085H631.078C634.772 292.085 637.919 291.093 638.603 289.703H639.697C644.349 289.703 649 281.565 649 279.679C649 277.794 645.443 276.007 640.792 276.007Z" fill="url(#paint0_linear)"/>
<path d="M446.1 280.208L391 109.008H394.1L449.2 280.208H446.1Z" fill="#FFD147"/>
<path d="M417.6 280.208L362.5 109.008H365.7L420.7 280.208H417.6Z" fill="#FFD147"/>
<path d="M408.4 153.508V156.108L378.9 156.008L378.4 153.508H408.4Z" fill="#FFD147"/>
<path d="M402.3 136.908V139.508H372.8L372.3 136.908H402.3Z" fill="#FFD147"/>
<path d="M397.3 120.308V122.908H367.8L367.3 120.308H397.3Z" fill="#FFD147"/>
<path d="M413.8 170.308V172.908L384.3 172.808L383.8 170.308H413.8Z" fill="#FFD147"/>
<path d="M418.8 187.107V189.707L389.3 189.607L388.8 187.107H418.8Z" fill="#FFD147"/>
<path d="M424 204.608L425.2 207.108H395.7L395.2 204.508L424 204.608Z" fill="#FFD147"/>
<path d="M429.6 222.008L430.8 224.608L401.3 224.508L400.8 222.008H429.6Z" fill="#FFD147"/>
<path d="M434.8 239.107L436 241.607H406.4L405.9 239.107H434.8Z" fill="#FFD147"/>
<path d="M439.1 256.508L440.2 259.108L410.7 259.008L410.2 256.508H439.1Z" fill="#FFD147"/>
<path d="M148.7 234.308C147.1 235.608 147.9 238.208 150 238.408C150 238.408 150.1 238.408 150.2 238.408C155 238.908 159.8 237.608 160 237.208C160.7 236.208 161.2 234.108 158.6 234.008C149.3 233.608 148.7 234.308 148.7 234.308Z" fill="#FFB500"/>
<path d="M164.7 224.508C163.9 226.208 154.8 236.208 156.9 237.708C159 239.208 160.8 238.308 161.2 237.508C161.8 236.208 166 227.308 166.8 224.608" fill="#FFB500"/>
<path d="M350.6 268.707C350.6 274.407 330 279.007 304.6 279.007C279.2 279.007 258.6 274.407 258.6 268.707V262.507H350.6V268.707Z" fill="#FBA700"/>
<path d="M304.6 272.907C330.005 272.907 350.6 268.295 350.6 262.607C350.6 256.918 330.005 252.307 304.6 252.307C279.195 252.307 258.6 256.918 258.6 262.607C258.6 268.295 279.195 272.907 304.6 272.907Z" fill="#FFCC00"/>
<path d="M304.6 268.507C324.758 268.507 341.1 265.463 341.1 261.707C341.1 257.952 324.758 254.907 304.6 254.907C284.442 254.907 268.1 257.952 268.1 261.707C268.1 265.463 284.442 268.507 304.6 268.507Z" fill="#FBA700"/>
<path opacity="0.3" d="M258.6 262.407C266.5 265.507 281.5 267.707 298.7 267.707C323.9 267.707 344.4 263.107 344.7 257.507C336.8 254.407 321.8 252.207 304.6 252.207C279.3 252.207 258.8 256.807 258.6 262.407Z" fill="#FF9E00"/>
<path d="M341 254.007C341 259.707 320.4 264.307 295 264.307C269.6 264.307 249 259.707 249 254.007V247.907H341V254.007Z" fill="#FBA700"/>
<path d="M295.1 258.207C320.505 258.207 341.1 253.596 341.1 247.907C341.1 242.219 320.505 237.607 295.1 237.607C269.695 237.607 249.1 242.219 249.1 247.907C249.1 253.596 269.695 258.207 295.1 258.207Z" fill="#FFCC00"/>
<path d="M295.1 253.908C315.258 253.908 331.6 250.863 331.6 247.108C331.6 243.352 315.258 240.308 295.1 240.308C274.942 240.308 258.6 243.352 258.6 247.108C258.6 250.863 274.942 253.908 295.1 253.908Z" fill="#FBA700"/>
<path opacity="0.3" d="M295.1 237.508C282.2 237.508 270.5 238.708 262.1 240.608C262 240.908 261.9 241.308 261.9 241.608C261.9 247.308 282.5 251.908 307.9 251.908C320.8 251.908 332.5 250.708 340.9 248.808C341 248.508 341.1 248.108 341.1 247.808C341 242.208 320.5 237.508 295.1 237.508Z" fill="#FF9E00"/>
<path d="M358.7 237.807C358.7 243.507 338.1 248.107 312.7 248.107C287.3 248.107 266.7 243.507 266.7 237.807V231.607H358.7V237.807Z" fill="#FBA700"/>
<path d="M312.7 241.908C338.105 241.908 358.7 237.296 358.7 231.608C358.7 225.919 338.105 221.308 312.7 221.308C287.295 221.308 266.7 225.919 266.7 231.608C266.7 237.296 287.295 241.908 312.7 241.908Z" fill="#FFCC00"/>
<path d="M312.7 237.608C332.858 237.608 349.2 234.563 349.2 230.808C349.2 227.052 332.858 224.008 312.7 224.008C292.542 224.008 276.2 227.052 276.2 230.808C276.2 234.563 292.542 237.608 312.7 237.608Z" fill="#FBA700"/>
<path opacity="0.3" d="M312.7 221.107C299.8 221.107 288.1 222.307 279.7 224.207C279.6 224.507 279.5 224.907 279.5 225.207C279.5 230.907 300.1 235.507 325.5 235.507C338.4 235.507 350.1 234.307 358.5 232.407C358.6 232.107 358.7 231.707 358.7 231.407C358.7 225.807 338.1 221.107 312.7 221.107Z" fill="#FF9E00"/>
<path d="M364.1 226.307C364.1 232.007 343.5 236.607 318.1 236.607C292.7 236.607 272.1 232.007 272.1 226.307V220.107H364.1V226.307Z" fill="#FBA700"/>
<path d="M318.1 230.507C343.505 230.507 364.1 225.896 364.1 220.207C364.1 214.519 343.505 209.907 318.1 209.907C292.695 209.907 272.1 214.519 272.1 220.207C272.1 225.896 292.695 230.507 318.1 230.507Z" fill="#FFCC00"/>
<path d="M318.1 226.108C338.258 226.108 354.6 223.063 354.6 219.308C354.6 215.552 338.258 212.508 318.1 212.508C297.942 212.508 281.6 215.552 281.6 219.308C281.6 223.063 297.942 226.108 318.1 226.108Z" fill="#FBA700"/>
<path opacity="0.3" d="M272.1 220.008C280 223.108 295 225.308 312.2 225.308C337.4 225.308 357.9 220.708 358.2 215.108C350.3 212.008 335.3 209.808 318.1 209.808C292.8 209.808 272.3 214.408 272.1 220.008Z" fill="#FF9E00"/>
<path d="M354.5 211.607C354.5 217.307 333.9 221.907 308.5 221.907C283.1 221.907 262.5 217.307 262.5 211.607V205.507H354.5V211.607Z" fill="#FBA700"/>
<path d="M308.6 215.807C334.005 215.807 354.6 211.196 354.6 205.507C354.6 199.819 334.005 195.207 308.6 195.207C283.195 195.207 262.6 199.819 262.6 205.507C262.6 211.196 283.195 215.807 308.6 215.807Z" fill="#FFCC00"/>
<path d="M308.6 211.507C328.758 211.507 345.1 208.463 345.1 204.707C345.1 200.952 328.758 197.907 308.6 197.907C288.442 197.907 272.1 200.952 272.1 204.707C272.1 208.463 288.442 211.507 308.6 211.507Z" fill="#FBA700"/>
<path opacity="0.3" d="M308.6 195.107C295.7 195.107 284 196.307 275.6 198.207C275.5 198.507 275.4 198.907 275.4 199.207C275.4 204.907 296 209.507 321.4 209.507C334.3 209.507 346 208.307 354.4 206.407C354.5 206.107 354.6 205.707 354.6 205.407C354.5 199.807 334 195.107 308.6 195.107Z" fill="#FF9E00"/>
<path d="M372.2 195.407C372.2 201.107 351.6 205.707 326.2 205.707C300.8 205.707 280.2 201.107 280.2 195.407V189.207H372.2V195.407Z" fill="#FBA700"/>
<path d="M326.2 199.507C351.605 199.507 372.2 194.896 372.2 189.207C372.2 183.519 351.605 178.907 326.2 178.907C300.795 178.907 280.2 183.519 280.2 189.207C280.2 194.896 300.795 199.507 326.2 199.507Z" fill="#FFCC00"/>
<path d="M326.2 195.207C346.358 195.207 362.7 192.163 362.7 188.407C362.7 184.652 346.358 181.607 326.2 181.607C306.042 181.607 289.7 184.652 289.7 188.407C289.7 192.163 306.042 195.207 326.2 195.207Z" fill="#FBA700"/>
<path opacity="0.3" d="M326.2 178.707C313.3 178.707 301.6 179.907 293.2 181.807C293.1 182.107 293 182.507 293 182.807C293 188.507 313.6 193.107 339 193.107C351.9 193.107 363.6 191.907 372 190.007C372.1 189.707 372.2 189.307 372.2 189.007C372.2 183.407 351.6 178.707 326.2 178.707Z" fill="#FF9E00"/>
<path d="M361.9 181.807C361.9 187.507 341.3 192.107 315.9 192.107C290.5 192.107 269.9 187.507 269.9 181.807V175.607H361.9V181.807Z" fill="#FBA700"/>
<path d="M315.9 185.908C341.305 185.908 361.9 181.296 361.9 175.608C361.9 169.919 341.305 165.308 315.9 165.308C290.495 165.308 269.9 169.919 269.9 175.608C269.9 181.296 290.495 185.908 315.9 185.908Z" fill="#FFCC00"/>
<path d="M315.9 181.608C336.058 181.608 352.4 178.563 352.4 174.808C352.4 171.052 336.058 168.008 315.9 168.008C295.742 168.008 279.4 171.052 279.4 174.808C279.4 178.563 295.742 181.608 315.9 181.608Z" fill="#FBA700"/>
<path opacity="0.3" d="M315.9 165.508C303 165.508 291.3 166.708 282.9 168.608C282.8 168.908 282.7 169.308 282.7 169.608C282.7 175.308 303.3 179.908 328.7 179.908C341.6 179.908 353.3 178.708 361.7 176.808C361.8 176.508 361.9 176.108 361.9 175.808C361.9 170.108 341.3 165.508 315.9 165.508Z" fill="#FF9E00"/>
<path d="M377.6 166.407C377.6 172.107 357 176.707 331.6 176.707C306.2 176.707 285.6 172.107 285.6 166.407V160.207H377.6V166.407Z" fill="#FBA700"/>
<path d="M331.7 170.507C357.105 170.507 377.7 165.896 377.7 160.207C377.7 154.519 357.105 149.907 331.7 149.907C306.295 149.907 285.7 154.519 285.7 160.207C285.7 165.896 306.295 170.507 331.7 170.507Z" fill="#FFCC00"/>
<path d="M331.7 166.207C351.859 166.207 368.2 163.163 368.2 159.407C368.2 155.652 351.859 152.607 331.7 152.607C311.542 152.607 295.2 155.652 295.2 159.407C295.2 163.163 311.542 166.207 331.7 166.207Z" fill="#FBA700"/>
<path opacity="0.3" d="M331.7 149.907C318.8 149.907 307.1 151.107 298.7 153.007C298.6 153.307 298.5 153.707 298.5 154.007C298.5 159.707 319.1 164.307 344.5 164.307C357.4 164.307 369.1 163.107 377.5 161.207C377.6 160.907 377.7 160.507 377.7 160.207C377.6 154.607 357.1 149.907 331.7 149.907Z" fill="#FF9E00"/>
<path d="M359.2 150.807C359.2 156.507 338.6 161.107 313.2 161.107C287.8 161.107 267.2 156.507 267.2 150.807V144.607H359.2V150.807Z" fill="#FBA700"/>
<path d="M313.2 154.908C338.605 154.908 359.2 150.296 359.2 144.608C359.2 138.919 338.605 134.308 313.2 134.308C287.795 134.308 267.2 138.919 267.2 144.608C267.2 150.296 287.795 154.908 313.2 154.908Z" fill="#FFCC00"/>
<path d="M313.2 150.608C333.358 150.608 349.7 147.563 349.7 143.808C349.7 140.052 333.358 137.008 313.2 137.008C293.042 137.008 276.7 140.052 276.7 143.808C276.7 147.563 293.042 150.608 313.2 150.608Z" fill="#FBA700"/>
<path opacity="0.3" d="M313.2 134.407C300.3 134.407 288.6 135.607 280.2 137.507C280.1 137.807 280 138.207 280 138.507C280 144.207 300.6 148.807 326 148.807C338.9 148.807 350.6 147.607 359 145.707C359.1 145.407 359.2 145.007 359.2 144.707C359.2 139.007 338.6 134.407 313.2 134.407Z" fill="#FF9E00"/>
<path d="M374.4 134.607C374.4 140.307 353.8 144.907 328.4 144.907C303 144.907 282.4 140.307 282.4 134.607V128.407H374.4V134.607Z" fill="#FBA700"/>
<path d="M328.4 138.707C353.805 138.707 374.4 134.096 374.4 128.407C374.4 122.719 353.805 118.107 328.4 118.107C302.995 118.107 282.4 122.719 282.4 128.407C282.4 134.096 302.995 138.707 328.4 138.707Z" fill="#FFCC00"/>
<path d="M328.4 138.707C353.805 138.707 374.4 134.096 374.4 128.407C374.4 122.719 353.805 118.107 328.4 118.107C302.995 118.107 282.4 122.719 282.4 128.407C282.4 134.096 302.995 138.707 328.4 138.707Z" fill="#FFCC00"/>
<path d="M328.4 134.408C348.558 134.408 364.9 131.363 364.9 127.608C364.9 123.852 348.558 120.808 328.4 120.808C308.242 120.808 291.9 123.852 291.9 127.608C291.9 131.363 308.242 134.408 328.4 134.408Z" fill="#FBA700"/>
<path d="M656.433 142.199L647.933 137.899C646.133 136.999 643.933 137.699 643.033 139.499L639.433 146.599L637.133 151.099L585.433 252.399C584.933 253.399 584.533 254.499 584.333 255.699L580.033 278.399C579.733 279.799 581.533 280.699 582.533 279.699L598.433 262.899C599.233 262.099 599.933 261.099 600.433 260.099L652.133 158.799L654.433 154.299L658.033 147.199C658.933 145.299 658.233 143.099 656.433 142.199Z" fill="#FF5E94"/>
<path d="M598.433 262.8L582.633 279.6C581.633 280.7 579.833 279.8 580.133 278.3L584.433 255.6C584.633 254.5 585.033 253.4 585.533 252.3L639.533 146.5C641.633 142.4 646.733 140.7 650.833 142.8C654.933 144.9 656.633 150 654.533 154.1L600.533 259.9C599.933 261 599.233 262 598.433 262.8Z" fill="#FFCC00"/>
<path d="M652.133 158.699L637.133 151.099L643.033 139.499C643.933 137.699 646.133 136.999 647.933 137.899L656.433 142.199C658.233 143.099 658.933 145.299 658.033 147.099L652.133 158.699Z" fill="#5A52FF"/>
<path d="M642.136 153.57L637.148 151.025L585.392 252.488L590.38 255.032L642.136 153.57Z" fill="#FFB500"/>
<path d="M584.333 255.6L580.033 278.3C579.733 279.7 581.533 280.6 582.533 279.6L598.433 262.8C599.233 262 599.833 261.1 600.333 260.1C601.233 258.3 600.833 256.3 599.533 255.6C598.133 254.9 596.233 255.8 595.333 257.7C596.233 255.8 595.933 253.8 594.533 253.1C593.133 252.4 591.233 253.3 590.333 255.2C591.233 253.3 590.933 251.3 589.533 250.6C588.133 249.9 586.233 250.8 585.333 252.7C584.933 253.5 584.533 254.5 584.333 255.6Z" fill="#FCE2AE"/>
<path d="M581.233 272.1L580.033 278.3C579.733 279.7 581.533 280.6 582.533 279.6L586.833 275L581.233 272.1Z" fill="#5A52FF"/>
<path d="M400.489 184.375L394.615 191.875C393.382 193.465 393.64 195.759 395.23 196.992L401.493 201.906L405.459 205.039L494.75 275.479C495.633 276.164 496.634 276.771 497.772 277.201L519.2 285.839C520.515 286.406 521.748 284.816 520.962 283.641L507.58 264.773C506.952 263.832 506.107 262.951 505.224 262.266L415.933 191.826L411.967 188.693L405.705 183.779C404.016 182.527 401.722 182.785 400.489 184.375Z" fill="#FF5E94"/>
<path d="M507.483 264.753L520.883 283.523C521.768 284.718 520.534 286.308 519.121 285.722L497.694 277.083C496.654 276.673 495.653 276.066 494.671 275.361L401.415 201.789C397.802 198.931 397.128 193.597 399.987 189.985C402.845 186.372 408.178 185.698 411.791 188.556L505.047 262.129C506.009 262.932 506.854 263.813 507.483 264.753Z" fill="#FFCC00"/>
<path d="M415.835 191.806L405.459 205.039L395.231 196.993C393.64 195.759 393.382 193.465 394.616 191.875L400.489 184.375C401.722 182.785 404.016 182.527 405.607 183.76L415.835 191.806Z" fill="#00C7B1"/>
<path d="M408.857 200.612L405.389 205.01L494.828 275.536L498.295 271.139L408.857 200.612Z" fill="#FFB500"/>
<path d="M497.674 277.181L519.102 285.82C520.416 286.387 521.65 284.796 520.864 283.621L507.482 264.753C506.853 263.813 506.088 263.049 505.204 262.364C503.614 261.13 501.574 261.133 500.634 262.272C499.675 263.509 500.188 265.548 501.876 266.8C500.188 265.548 498.168 265.452 497.208 266.689C496.249 267.926 496.762 269.965 498.45 271.218C496.762 269.965 494.742 269.87 493.783 271.106C492.823 272.343 493.336 274.382 495.024 275.635C495.731 276.183 496.634 276.77 497.674 277.181Z" fill="#FCE2AE"/>
<path d="M513.254 283.436L519.102 285.82C520.417 286.387 521.65 284.797 520.864 283.622L517.19 278.508L513.254 283.436Z" fill="#00C7B1"/>
<path d="M313.7 300.208L124.4 285.708C121.1 278.108 113.5 272.708 104.7 272.708C92.8002 272.708 83.2002 282.308 83.2002 294.208C83.2002 306.108 92.8002 315.708 104.7 315.708C105.5 315.708 106.2 315.708 107 315.608L306.6 316.008L313.7 300.208Z" fill="#00666B"/>
<path d="M305 245.508L318.8 301.508C321 310.608 313.6 317.408 302.1 316.108L98.4003 291.608C87.8003 290.308 85.1003 282.608 91.9003 274.908L134.1 227.108C137.7 223.008 146.3 220.508 153.5 221.208L289.2 235.708C296.8 236.508 303.8 240.808 305 245.508Z" fill="#00C7B1"/>
<path d="M204.5 232.408L182 289.808L111.9 281.508L153.2 226.908L204.5 232.408Z" fill="#73E5D5"/>
<path opacity="0.69" d="M182.1 253.208C174.2 257.708 165.8 261.408 157.2 264.308C144.3 268.708 131.2 271.908 118 273.608L112 281.508L182.1 289.808L201.1 241.208C195 245.608 188.6 249.608 182.1 253.208Z" fill="url(#paint1_linear)"/>
<path d="M217.3 279.008L214.8 289.708C214.3 291.808 211.6 293.308 208.9 293.008L203.6 292.408C200.9 292.108 199.2 290.108 199.9 287.908L203.2 277.408C203.8 275.508 206.3 274.308 208.8 274.608L213.7 275.208C216.1 275.408 217.8 277.108 217.3 279.008Z" fill="#E1E9FF"/>
<path d="M222.9 255.508L221 263.708C220.6 265.308 218.3 266.508 215.9 266.208L211.2 265.708C208.8 265.408 207.3 263.908 207.8 262.208L210.3 254.008C210.8 252.508 212.9 251.608 215.1 251.808L219.4 252.308C221.7 252.708 223.2 254.108 222.9 255.508Z" fill="#E1E9FF"/>
<path d="M227.2 237.008L225.7 243.608C225.4 244.908 223.4 245.808 221.3 245.608L217.1 245.108C215 244.908 213.6 243.608 214 242.308L216 235.808C216.4 234.608 218.3 233.908 220.3 234.108L224.2 234.508C226.1 234.708 227.5 235.808 227.2 237.008Z" fill="#E1E9FF"/>
<path d="M238.1 281.408L236.7 292.208C236.4 294.408 233.9 295.908 231.2 295.608L225.8 295.008C223.1 294.708 221.2 292.608 221.6 290.508L223.8 279.808C224.2 277.908 226.5 276.608 229.1 276.908L234 277.508C236.5 277.708 238.3 279.508 238.1 281.408Z" fill="#E1E9FF"/>
<path d="M241.2 257.608L240.1 266.008C239.9 267.708 237.7 268.808 235.3 268.508L230.6 268.008C228.2 267.708 226.5 266.108 226.8 264.508L228.5 256.208C228.8 254.708 230.9 253.708 233.1 254.008L237.5 254.508C239.7 254.708 241.4 256.108 241.2 257.608Z" fill="#E1E9FF"/>
<path d="M243.6 238.808L242.7 245.508C242.5 246.808 240.6 247.708 238.5 247.508L234.3 247.008C232.2 246.808 230.6 245.508 230.9 244.208L232.2 237.608C232.4 236.408 234.3 235.608 236.3 235.908L240.2 236.308C242.3 236.408 243.8 237.608 243.6 238.808Z" fill="#E1E9FF"/>
<path d="M260.4 284.008L260.2 295.008C260.2 297.208 257.9 298.808 255.1 298.408L249.7 297.808C246.9 297.508 244.8 295.408 245 293.208L246 282.308C246.2 280.408 248.4 279.108 250.9 279.408L255.9 280.008C258.4 280.208 260.5 282.008 260.4 284.008Z" fill="#E1E9FF"/>
<path d="M260.9 259.708L260.7 268.208C260.7 269.908 258.7 271.108 256.2 270.808L251.5 270.308C249.1 270.008 247.2 268.408 247.4 266.708L248.2 258.308C248.3 256.808 250.3 255.808 252.5 256.008L256.9 256.508C259.1 256.808 260.9 258.208 260.9 259.708Z" fill="#E1E9FF"/>
<path d="M261.3 240.708L261.2 247.508C261.2 248.808 259.4 249.808 257.2 249.508L253 249.008C250.9 248.808 249.2 247.508 249.3 246.208L249.9 239.508C250 238.308 251.7 237.508 253.7 237.708L257.6 238.108C259.7 238.308 261.3 239.408 261.3 240.708Z" fill="#E1E9FF"/>
<path d="M288.1 287.208L289.4 298.408C289.7 300.708 287.6 302.308 284.8 301.908L279.3 301.308C276.5 301.008 274.1 298.808 274 296.608L273.5 285.508C273.4 283.508 275.4 282.208 278 282.508L283 283.108C285.6 283.308 287.9 285.208 288.1 287.208Z" fill="#FF6C95"/>
<path d="M285.3 262.408L286.3 271.108C286.5 272.808 284.7 274.008 282.2 273.808L277.4 273.308C275 273.008 272.9 271.408 272.8 269.708L272.4 261.108C272.3 259.608 274.1 258.508 276.4 258.808L280.8 259.308C283.1 259.508 285.1 260.908 285.3 262.408Z" fill="#FFD147"/>
<path d="M283 243.008L283.8 249.908C284 251.308 282.3 252.208 280.1 252.008L275.9 251.508C273.7 251.308 271.9 250.008 271.9 248.608L271.6 241.808C271.5 240.608 273.2 239.808 275.2 240.008L279.2 240.408C281.1 240.608 282.9 241.808 283 243.008Z" fill="#00666B"/>
<path d="M146.8 226.907L104.8 279.507C104.3 280.107 103.2 280.507 102.4 280.407C101.6 280.307 101.3 279.707 101.8 279.107L144.6 226.607C144.9 226.307 145.6 226.107 146.2 226.107C146.8 226.207 147 226.507 146.8 226.907Z" fill="#00666B"/>
<path d="M151.9 238.608C149.3 239.508 146.8 240.508 144.5 241.508C159.6 245.108 175.9 253.408 173.5 255.808C171.4 258.008 164 261.008 151 263.208C151.8 265.108 152.9 267.008 153.9 268.708C169.1 271.008 188.9 261.008 191.7 257.708C194.4 254.408 170.4 238.208 151.9 238.608Z" fill="#00666B"/>
<path d="M108.5 271.608L138.7 233.808C138.7 233.808 152.3 209.408 131.3 194.608C113.5 182.108 103.1 189.908 103.1 189.908L69.1001 230.408C69.1001 230.408 92.1001 224.108 105.3 237.808C118.6 251.508 108.5 271.608 108.5 271.608Z" fill="#E1E9FF"/>
<path d="M108.627 196.931L88.7529 220.983L89.2926 221.429L109.167 197.377L108.627 196.931Z" fill="white"/>
<path d="M114.485 196.917L94.7549 220.957L95.296 221.401L115.026 197.361L114.485 196.917Z" fill="white"/>
<path d="M113.811 205.244L98.7002 223.632L99.241 224.076L114.352 205.688L113.811 205.244Z" fill="white"/>
<path d="M126.08 213.732L111.652 232.785L112.21 233.208L126.638 214.155L126.08 213.732Z" fill="white"/>
<path d="M123.97 208.984L108.649 229.243L109.207 229.665L124.528 209.406L123.97 208.984Z" fill="white"/>
<path d="M72.8999 297.708C73.4999 290.708 75.0999 282.908 75.0999 282.908L68.1999 280.908C68.1999 280.908 66.4999 280.908 68.3999 295.108C64.0999 300.808 62.8999 313.608 63.4999 318.308C63.4999 318.808 63.6999 319.308 63.8999 319.708C64.5999 320.908 65.9999 322.608 67.5999 322.108C66.7999 321.408 66.2999 320.908 65.9999 320.408C65.6999 320.008 65.5999 319.608 65.5999 319.108L65.6999 318.008C66.7999 314.608 72.4999 303.608 72.8999 297.708Z" fill="#736AFF"/>
<path d="M76.7002 226.508C76.9002 226.808 77.8002 227.408 77.8002 227.808C77.7002 228.208 76.7002 228.408 76.7002 228.408V226.508Z" fill="#7676E5"/>
<path d="M70.4001 216.908C70.5001 216.908 70.5001 216.908 70.5001 217.008C70.5001 217.108 70.5001 217.108 70.4001 217.208C69.8001 217.508 69.3001 218.608 68.9001 220.408C68.6001 221.808 68.6001 223.208 68.6001 223.208C68.6001 223.308 68.5001 223.308 68.5001 223.308C68.4001 223.308 68.4001 223.208 68.4001 223.208C68.4001 222.908 68.7001 217.608 70.4001 216.908Z" fill="#212431"/>
<path d="M74.4002 235.008C74.3002 234.708 74.0002 233.308 74.3002 232.708C74.9002 232.708 76.0002 232.808 76.2002 232.608C77.9002 230.908 77.0002 224.908 75.7002 221.908C74.1002 218.208 66.3002 218.508 67.5002 225.208C68.6002 231.108 69.1002 235.208 69.2002 236.008C68.6002 237.208 70.3002 238.508 69.3002 239.108C68.5002 239.608 68.6002 240.908 69.5002 241.208C72.2002 242.308 71.2002 242.608 74.4002 241.908C76.6002 241.508 78.1002 240.208 79.1002 239.208C79.7002 238.508 79.4002 237.508 78.5002 237.208C76.6002 236.708 75.2002 235.708 74.4002 235.008Z" fill="#8383FF"/>
<path d="M74.7002 218.908C77.4002 220.008 78.7002 222.508 76.3002 225.208C74.7002 227.008 75.6002 228.608 75.6002 228.608C75.6002 228.608 75.4002 228.008 76.3002 228.708C77.2002 229.308 78.2002 230.308 78.1002 230.908" stroke="#212431" stroke-width="0.207" stroke-miterlimit="10" stroke-linecap="round"/>
<path d="M77.1001 231.708L75.8001 230.008C75.8001 230.008 77.5001 230.908 77.9001 231.208C78.2001 230.208 77.1001 230.108 75.9001 227.908C74.7001 225.608 77.8001 225.508 77.2001 221.708C76.6001 217.908 71.4001 217.108 68.9001 217.708C60.4001 220.008 63.6001 230.108 65.2001 232.608C66.5001 234.708 74.6001 232.908 77.1001 231.708Z" fill="#212431"/>
<path d="M68.6001 275.808C68.6001 275.808 70.2001 285.508 72.5001 295.908C70.1001 302.208 73.7001 319.708 73.8001 319.708C74.1001 319.408 75.3001 321.008 75.3001 321.008C75.3001 321.008 77.9001 305.508 78.5001 298.508C79.1001 291.508 79.2001 283.008 79.2001 283.008L68.6001 275.808Z" fill="#8383FF"/>
<path d="M73.5 318.708C73.5 318.708 72.5 319.508 72.7 320.608C72.9 321.708 73.1 324.108 73.1 324.108H74.1V321.808C74.1 321.608 76.3 324.108 76.6 324.108H81.9C81.9 324.108 82.3 322.508 79.1 322.008C76 321.608 73.5 318.708 73.5 318.708Z" fill="#343A4D"/>
<path d="M63.5 318.107C63.5 318.107 62.1 318.207 61.9 319.307C61.7 320.307 61 322.407 61 322.407L61.7 323.007L62.7 320.907C62.7 320.907 65 323.907 65.3 324.107H71.1C71.1 324.107 71.1 322.207 67.5 322.107C64.3 322.007 63.5 318.107 63.5 318.107Z" fill="#343A4D"/>
<path d="M95.7 208.908C95.4 208.708 95.0999 208.708 94.7999 208.808C94.0999 209.308 94 210.008 94 210.008C93.6 210.508 93.4 211.108 93.4 211.808L93.1 214.008L84.2 229.008L88.2999 232.008L94.7999 215.108L96.2999 212.408C96.2999 212.508 98.5 211.008 95.7 208.908Z" fill="#8383FF"/>
<path d="M80.6999 241.507C80.6999 241.407 80.6999 241.307 80.5999 241.207C84.6999 235.907 88.1999 232.107 88.1999 232.107L84.6999 228.107L76.6999 235.707H74.3999C74.3999 235.707 71.1999 233.607 68.4999 236.507C67.4999 237.507 66.7999 240.407 67.4999 243.307C69.3999 251.507 67.8999 255.907 67.8999 255.907L78.6999 259.907C78.6999 259.907 78.8999 252.807 79.0999 247.707C79.0999 246.707 79.4999 245.807 79.9999 245.007C80.4999 243.907 80.8999 242.807 80.6999 241.507Z" fill="#FFCC00"/>
<path d="M78.9 255.607C78.9 255.607 80.3 262.907 80.3 267.207C80.3 269.607 79.7 284.607 79.7 284.607C79.7 284.607 68.2 285.307 66.2 285.307C65.7 273.007 63.3 272.707 63.3 266.907C63.3 264.407 63.7 261.607 64.6 259.807C65.3 258.507 65.7 257.607 66 255.807L66.1 255.607H78.9Z" fill="#FF6C95"/>
<path d="M93.2 212.508C93.2 212.508 93.3 209.908 93.5 209.608C93.6 209.308 94.4 210.908 94.4 211.308C94.3 211.608 93.2 212.508 93.2 212.508Z" fill="#8383FF"/>
<path d="M74.3 234.008C73.3 234.308 72.4 234.708 70.6 234.608C68.8 234.508 66.7 233.608 66 234.208C63.3 236.508 63.7 241.608 64.7 243.308C66.5 248.808 65.5 255.508 65.8 256.108C66 256.708 72.3 256.208 74.5 255.708C76.6 255.108 78.3 255.208 78.9 255.708C79.3 256.008 78.7 251.308 79.9 247.608C80.6 242.208 80.3 244.308 81.5 238.608C81.8 236.908 81.3 237.008 82.7 234.908C78.9 232.208 79 232.908 74.3 234.008Z" fill="#FFCC00"/>
<path d="M550.173 229.308C550.273 228.708 550.873 228.308 550.673 228.008C550.373 227.708 550.373 226.908 550.773 226.808C551.673 226.708 552.373 226.408 552.673 226.208C552.873 225.908 553.073 225.608 553.273 225.308C553.273 225.208 553.273 225.208 553.373 225.208C553.473 225.108 553.573 225.008 553.673 224.908C554.773 223.308 555.673 222.208 555.673 222.208L562.273 226.508L560.173 231.808C560.173 231.908 560.073 231.908 560.073 232.008C559.973 232.008 559.773 232.008 559.673 232.008C559.673 232.008 559.673 232.008 559.573 232.008C559.573 232.008 559.573 232.008 559.473 232.008C557.673 232.008 556.173 233.108 555.273 234.608C554.173 234.508 553.173 234.308 552.173 233.808C551.773 233.608 551.173 233.208 551.173 233.208C550.473 232.708 549.373 231.408 549.373 230.908C549.373 230.008 550.073 229.908 550.173 229.308Z" fill="#BEC7FA"/>
<path d="M549.073 315.208H540.973C539.873 315.308 538.673 315.608 538.473 316.508C538.473 316.508 538.373 317.108 538.373 317.708C538.673 318.008 549.373 317.708 549.373 317.708C550.573 316.308 549.073 315.208 549.073 315.208Z" fill="#00C7B1"/>
<path d="M538.373 317.708H549.373L549.273 318.108H538.373V317.708Z" fill="#212B53"/>
<path d="M545.873 315.208H545.173L545.373 316.208H546.073L545.873 315.208Z" fill="white"/>
<path d="M544.273 315.208H543.573L543.773 316.208H544.473L544.273 315.208Z" fill="white"/>
<path d="M549.572 312.508L548.972 315.208C548.372 315.508 547.472 315.508 546.772 315.308L546.672 315.208L546.272 312.508H549.572Z" fill="#BEC7FA"/>
<path d="M567.873 315.208H559.773C558.673 315.308 557.473 315.608 557.273 316.508C557.273 316.508 557.173 317.108 557.173 317.708C557.473 318.008 568.173 317.708 568.173 317.708C569.373 316.308 567.873 315.208 567.873 315.208Z" fill="#00C7B1"/>
<path d="M557.272 317.708H568.272L568.172 318.108H557.272V317.708Z" fill="#212B53"/>
<path d="M564.673 315.208H563.973L564.173 316.208H564.873L564.673 315.208Z" fill="white"/>
<path d="M563.173 315.208H562.473L562.673 316.208H563.373L563.173 315.208Z" fill="white"/>
<path d="M567.573 312.508L567.973 315.208C567.373 315.508 566.473 315.508 565.773 315.308L565.673 315.208L564.373 312.508H567.573Z" fill="#9EAEEF"/>
<path d="M547.072 223.507C547.072 223.507 546.272 231.207 547.872 236.107C547.072 236.807 544.272 239.807 543.472 235.907C542.572 232.007 544.472 222.107 544.472 222.107L547.072 223.507Z" fill="#9EAEEF"/>
<path d="M551.073 222.908L552.573 223.908L552.073 225.108L550.373 224.408L551.073 222.908Z" fill="#1B1B7F"/>
<path d="M551.973 224.309C551.773 224.709 551.773 225.009 551.973 225.109C552.073 225.209 552.373 224.909 552.473 224.609C552.673 224.209 552.673 223.909 552.473 223.809C552.373 223.709 552.173 224.009 551.973 224.309Z" fill="#1B1B7F"/>
<path d="M532.173 217.208C532.473 216.508 532.973 215.408 533.673 214.408C534.773 212.808 535.173 212.008 535.173 212.008L551.273 222.608L550.273 224.608L532.173 217.908C532.173 217.708 532.173 217.508 532.173 217.208Z" fill="#202096"/>
<path d="M556.973 234.508L557.573 238.108H552.473L552.073 233.708L556.973 234.508Z" fill="#9EAEEF"/>
<path d="M543.672 243.508C543.672 243.508 537.572 241.608 535.672 239.008C533.772 236.408 536.972 222.208 536.972 222.208L536.572 219.608C536.372 218.208 537.472 216.808 538.872 216.808H540.472C541.172 216.808 541.572 217.508 541.372 218.108L539.272 222.908C539.272 222.908 537.672 233.708 539.872 234.508C542.572 235.508 545.572 235.708 545.572 235.708L543.672 243.508Z" fill="#BEC7FA"/>
<path d="M555.073 234.507L556.673 231.007L555.673 230.407C554.973 229.907 554.573 229.007 554.873 228.207L555.973 224.907C555.973 224.907 552.773 224.507 552.873 221.607C552.873 220.107 554.973 220.107 554.973 220.107C554.973 220.107 555.573 221.507 557.573 221.607C558.373 221.507 560.673 221.807 562.273 224.507C563.273 226.307 562.873 229.107 561.973 231.307C561.173 233.207 559.073 234.307 557.073 234.607H555.073V234.507Z" fill="#212432"/>
<path d="M561.273 263.508C561.273 263.508 560.973 270.908 559.373 278.908C558.873 281.308 559.073 283.708 559.873 286.008C563.473 296.808 568.573 312.908 568.573 312.908H564.073C564.073 312.908 553.873 293.808 551.173 284.308C548.573 274.808 548.073 271.808 548.073 271.808L551.173 263.508H561.273Z" fill="#212432"/>
<path d="M557.473 229.408C557.673 229.908 557.273 230.708 556.673 231.008C556.073 231.308 555.373 231.208 555.173 230.608C554.973 230.108 555.373 229.308 555.973 229.008C556.673 228.708 557.373 228.908 557.473 229.408Z" fill="#BEC7FA"/>
<path d="M546.073 263.508H561.973C562.373 263.508 562.573 263.108 562.473 262.808L561.573 260.508C560.573 256.808 561.173 251.408 561.373 249.008L561.173 244.608C561.173 240.508 557.973 237.008 553.873 236.608L543.673 235.408C543.673 235.408 542.473 237.208 539.073 241.508C543.073 244.008 547.773 245.108 547.773 245.108L545.573 263.008C545.673 263.308 545.873 263.508 546.073 263.508Z" fill="#FF6C95"/>
<path d="M561.272 263.508C561.272 263.508 559.172 271.008 551.472 279.508C550.172 280.808 548.372 283.408 548.572 287.208L550.172 313.008H545.572C545.572 313.008 539.972 291.608 541.172 281.108C542.372 270.608 546.472 263.608 546.472 263.608H561.272V263.508Z" fill="#343A4D"/>
<path d="M534.673 215.508C533.873 217.108 532.773 218.308 532.273 218.008C531.773 217.708 531.973 216.208 532.773 214.608C533.573 213.008 534.673 211.808 535.173 212.108C535.673 212.308 535.473 213.808 534.673 215.508Z" fill="#B8F4E9"/>
<path d="M547.673 220.308L547.573 220.408C547.073 220.608 546.573 220.708 546.073 220.508H545.973C545.173 220.208 544.473 219.608 544.273 218.708C544.173 218.308 544.473 218.008 544.873 218.008L545.873 218.208C546.273 218.308 546.573 218.508 546.873 218.908L547.673 220.308Z" fill="#9EAEEF"/>
<path d="M547.873 245.208C547.873 245.208 549.773 245.908 552.173 245.908C552.173 245.908 549.473 247.808 547.573 247.708L547.873 245.208Z" fill="#ED4F80"/>
<path d="M241 44.1078L220.2 32.6078L209.5 30.5078L201.5 31.7078L241 44.1078Z" fill="#6A5DFF"/>
<path d="M241 44.108L202 34.108L201.5 31.708" fill="#4F3FF7"/>
<path d="M200.9 40.8076V40.9076L202.6 46.9076L240.9 44.1076L200.9 40.8076Z" fill="#6249FF"/>
<path d="M193.4 37.208L199 32.708L240.8 44.108L204.8 43.008L193.4 37.208Z" fill="#6A5DFF"/>
<path d="M105.6 114.608C106.9 114.208 108.1 113.608 109.4 113.008C109.7 112.908 110 113.008 110.2 113.208C110.3 113.508 110.2 113.808 110 114.008C108.7 114.708 107.4 115.208 106.1 115.708C105.6 115.908 105.1 116.008 104.7 116.208C104.5 116.308 104.3 116.208 104.2 116.108C104.1 116.008 104 115.908 104 115.808C103.9 115.508 104.1 115.208 104.4 115.108C104.7 114.908 105.2 114.708 105.6 114.608Z" fill="#E1E9FF"/>
<path d="M182 33.0078C183.8 33.2078 185.6 33.5078 187.6 33.9078C187.9 34.0078 188.1 34.3078 188.1 34.6078C188 34.9078 187.7 35.1078 187.4 35.1078C185.4 34.7078 183.6 34.4078 181.8 34.2078C181.7 34.2078 181.6 34.1078 181.5 34.1078C181.3 34.0078 181.2 33.8078 181.3 33.6078C181.4 33.2078 181.7 33.0078 182 33.0078Z" fill="#E1E9FF"/>
<path d="M172.6 33.5082C172.5 33.4082 172.4 33.2082 172.4 33.0082C172.4 32.7082 172.6 32.4082 173 32.4082C174.8 32.4082 176.7 32.5082 178.7 32.6082C179 32.6082 179.2 32.9082 179.2 33.2082C179.2 33.5082 178.9 33.7082 178.6 33.7082C176.7 33.5082 174.8 33.5082 173 33.5082C172.8 33.6082 172.7 33.5082 172.6 33.5082Z" fill="#E1E9FF"/>
<path d="M116.6 107.709C116.8 107.509 117.2 107.509 117.4 107.709C117.6 107.909 117.6 108.309 117.4 108.509C116 109.809 114.5 111.109 112.9 112.109C112.7 112.209 112.4 112.209 112.2 112.109C112.1 112.109 112.1 112.009 112.1 112.009C111.9 111.709 112 111.409 112.3 111.209C113.8 110.209 115.2 109.009 116.6 107.709Z" fill="#E1E9FF"/>
<path d="M118.9 106.108C118.7 105.908 118.6 105.508 118.8 105.308C119.1 104.908 119.4 104.508 119.7 104.108C120.5 103.008 121.2 101.908 121.9 100.708C122 100.408 122.4 100.308 122.7 100.508C123 100.608 123.1 101.008 122.9 101.308C122.2 102.508 121.5 103.708 120.6 104.808C120.3 105.208 120 105.608 119.6 106.008C119.5 106.208 119.2 106.308 118.9 106.108Z" fill="#E1E9FF"/>
<path d="M123.7 98.4078C123.7 98.4078 123.6 98.4079 123.6 98.3079C123.4 98.1079 123.3 97.9078 123.4 97.6078C124.1 96.0078 124.6 94.2078 125.1 92.3078C125.2 92.0078 125.5 91.8078 125.8 91.9078C126.1 92.0078 126.3 92.3078 126.2 92.6078C125.7 94.6078 125.1 96.4078 124.4 98.1078C124.3 98.4078 124 98.5078 123.7 98.4078Z" fill="#E1E9FF"/>
<path d="M138.7 50.0086C138.2 50.6086 137.8 51.2086 137.3 51.8086C136.6 52.7086 136 53.6086 135.4 54.6086C135.2 54.9086 134.9 54.9086 134.6 54.8086C134.4 54.6086 134.3 54.3086 134.5 54.0086C135.1 53.0086 135.8 52.1086 136.4 51.1086C136.9 50.5086 137.3 49.9086 137.8 49.3086C138 49.1086 138.3 49.0086 138.6 49.2086C138.9 49.4086 138.9 49.8086 138.7 50.0086Z" fill="#E1E9FF"/>
<path d="M133.8 57.5085C132.9 59.2085 132.2 60.9085 131.6 62.6085C131.5 62.9085 131.2 63.0085 130.9 62.9085C130.8 62.9085 130.8 62.9085 130.8 62.8085C130.6 62.7085 130.5 62.4085 130.6 62.2085C131.2 60.4085 132 58.6085 132.9 56.9085C133 56.6085 133.4 56.5085 133.7 56.7085C133.8 56.8085 133.9 57.2085 133.8 57.5085Z" fill="#E1E9FF"/>
<path d="M145 43.7079C143.6 44.9079 142.2 46.2079 140.9 47.5079C140.7 47.7079 140.4 47.7079 140.2 47.6079C140.2 47.6079 140.2 47.6079 140.1 47.6079C139.9 47.4079 139.9 47.0079 140.1 46.8079C141.4 45.4079 142.8 44.1079 144.3 42.9079C144.5 42.7079 144.9 42.7079 145.1 43.0079C145.3 43.1079 145.3 43.5079 145 43.7079Z" fill="#E1E9FF"/>
<path d="M155.5 37.2086C155.3 37.3086 155.1 37.3086 154.9 37.1086C154.8 37.0086 154.8 37.0086 154.7 36.9086C154.6 36.6086 154.7 36.3086 155 36.2086C156.8 35.4086 158.6 34.8086 160.4 34.2086C160.7 34.1086 161 34.3086 161.1 34.6086C161.2 34.9086 161 35.2086 160.7 35.3086C159 35.8086 157.2 36.5086 155.5 37.2086Z" fill="#E1E9FF"/>
<path d="M127.6 80.8078C127.5 80.8078 127.4 80.7078 127.3 80.7078C127.1 80.5078 127 80.3078 127.1 80.1078L127.2 79.4078C127.4 77.8078 127.6 76.1078 127.8 74.5078C127.8 74.2078 128.1 74.0078 128.4 74.0078C128.7 74.0078 128.9 74.3078 128.9 74.6078C128.7 76.2078 128.5 77.9078 128.3 79.5078L128.2 80.2078C128.2 80.6078 127.9 80.8078 127.6 80.8078Z" fill="#E1E9FF"/>
<path d="M147.7 41.7078C147.5 41.8078 147.2 41.8078 147 41.7078L146.9 41.6078C146.7 41.3078 146.8 41.0078 147 40.8078C148.6 39.7078 150.2 38.7078 151.9 37.8078C152.2 37.7078 152.5 37.8078 152.7 38.0078C152.8 38.3078 152.7 38.6078 152.5 38.8078C150.9 39.6078 149.2 40.6078 147.7 41.7078Z" fill="#E1E9FF"/>
<path d="M127.3 83.0078C127.6 83.0078 127.8 83.3078 127.8 83.6078C127.5 85.8078 127.2 87.6078 126.9 89.2078C126.8 89.5078 126.5 89.7078 126.2 89.7078C126.1 89.7078 126 89.6078 126 89.6078C125.8 89.5078 125.7 89.3078 125.8 89.0078C126.1 87.4078 126.4 85.6078 126.7 83.4078C126.7 83.2078 127 83.0078 127.3 83.0078Z" fill="#E1E9FF"/>
<path d="M101 115.808C101.3 115.708 101.6 115.908 101.7 116.208C101.8 116.508 101.6 116.808 101.3 116.908C99.5 117.208 97.7 117.508 95.6 117.608C95.5 117.608 95.3 117.608 95.2 117.508C95.1 117.408 95 117.308 95 117.108C95 116.808 95.2 116.508 95.5 116.508C97.4 116.408 99.3 116.208 101 115.808Z" fill="#E1E9FF"/>
<path d="M130.1 65.1085C130.4 65.2085 130.6 65.5085 130.5 65.8085C130.1 67.5085 129.7 69.3085 129.3 71.3085C129.2 71.6085 129 71.8085 128.6 71.8085C128.5 71.8085 128.4 71.7085 128.4 71.7085C128.2 71.6085 128.1 71.4085 128.2 71.2085C128.5 69.1085 128.9 67.3085 129.4 65.6085C129.5 65.2085 129.8 65.0085 130.1 65.1085Z" fill="#E1E9FF"/>
<path d="M167.5 32.8084C168.2 32.7084 168.8 32.7084 169.5 32.6084C169.8 32.6084 170.1 32.8084 170.1 33.1084C170.1 33.4084 169.9 33.7084 169.6 33.7084C169 33.7084 168.3 33.8084 167.7 33.9084C166.5 34.0084 165.3 34.2084 164.1 34.5084C163.9 34.5084 163.8 34.5084 163.6 34.4084C163.5 34.3084 163.4 34.2084 163.4 34.1084C163.3 33.8084 163.5 33.5084 163.8 33.4084C165 33.1084 166.2 32.9084 167.5 32.8084Z" fill="#E1E9FF"/>
<path d="M546 71.208L553.2 74.508L546.2 77.908L521 87.508L546 71.208Z" fill="#4F3FF7"/>
<path d="M553.2 74.5078L542.7 81.9078L544.2 78.7078L553.2 74.5078Z" fill="#6249FF"/>
<path d="M546 71.2078L543.5 64.5078L521 87.5078L546 71.2078Z" fill="#6A5DFF"/>
<path d="M521 87.5082L546.2 77.9082L549.4 88.0082L521 87.5082Z" fill="#6A5DFF"/>
<path d="M555.4 81.9074C555.4 81.8074 555.5 81.8074 555.5 81.7074C555.5 81.4074 555.3 81.1074 554.9 81.1074C553.9 81.1074 552.8 81.1074 551.8 81.2074C551.5 81.2074 551.2 81.5074 551.3 81.9074C551.3 82.2074 551.7 82.5074 552 82.4074C552.9 82.3074 553.9 82.2074 554.9 82.3074C555.1 82.2074 555.3 82.1074 555.4 81.9074Z" fill="#E1E9FF"/>
<path d="M589 139.207C588.7 139.107 588.5 138.707 588.7 138.407C589.4 136.607 589.7 134.707 589.8 132.707C589.8 132.407 590.1 132.107 590.4 132.107C590.7 132.107 591 132.407 591 132.707C591 134.907 590.6 137.007 589.8 138.907C589.6 139.207 589.3 139.407 589 139.207ZM590.2 129.707C589.9 129.807 589.6 129.507 589.5 129.207C589.2 127.207 588.6 125.307 587.8 123.507C587.7 123.207 587.8 122.807 588.1 122.707C588.4 122.607 588.8 122.707 588.9 123.007C589.8 124.907 590.4 126.907 590.7 129.007C590.7 129.107 590.7 129.207 590.7 129.307C590.5 129.507 590.4 129.707 590.2 129.707ZM586.9 120.607C586.6 120.807 586.2 120.707 586.1 120.407L585.9 120.207C584.8 118.707 583.6 117.307 582.2 115.907C582 115.707 581.9 115.307 582.2 115.007C582.4 114.807 582.8 114.707 583.1 115.007C584.6 116.407 585.9 117.907 587 119.407L587.2 119.607C587.3 119.807 587.3 120.007 587.2 120.207C587 120.507 587 120.507 586.9 120.607ZM580.2 113.607C580 113.907 579.6 113.907 579.4 113.707C577.9 112.607 576.2 111.507 574.3 110.507C574 110.307 573.9 110.007 574.1 109.707C574.3 109.407 574.6 109.307 574.9 109.507C576.8 110.507 578.5 111.707 580.1 112.807C580.3 113.007 580.4 113.307 580.3 113.507C580.3 113.507 580.2 113.507 580.2 113.607ZM571.9 108.507C571.8 108.807 571.4 108.907 571.1 108.807C570.9 108.707 570.8 108.707 570.6 108.607C570.3 109.207 569.9 109.807 569.5 110.307C569.3 110.607 568.9 110.607 568.7 110.407C568.4 110.207 568.4 109.807 568.6 109.607C569 109.107 569.3 108.607 569.6 108.107C568.4 107.607 567.1 107.007 565.6 106.407C565.3 106.307 565.1 105.907 565.3 105.607C565.4 105.307 565.8 105.107 566.1 105.307C567.6 105.907 569 106.507 570.2 107.007C570.6 106.107 571 105.207 571.3 104.307C571.4 104.007 571.7 103.807 572.1 103.907C572.4 104.007 572.6 104.307 572.5 104.707C572.2 105.607 571.8 106.607 571.4 107.507C571.5 107.607 571.7 107.607 571.8 107.707C571.9 107.907 572 108.207 571.9 108.507ZM572.5 101.607C572.2 101.607 571.9 101.307 572 100.907C572.1 99.7071 572.1 98.5071 571.9 97.3071C571.8 96.6071 571.6 95.8071 571.4 95.1071C571.3 94.8071 571.5 94.4071 571.8 94.4071C572.1 94.3071 572.5 94.5071 572.5 94.8071C572.7 95.6071 572.9 96.4071 573 97.2071C573.2 98.5071 573.2 99.8071 573.1 101.107C573.1 101.207 573.1 101.207 573 101.307C573 101.507 572.7 101.607 572.5 101.607ZM567 113.107C565.4 114.607 563.7 115.807 561.8 116.607C561.5 116.707 561.1 116.607 561 116.307C560.9 116.007 561 115.607 561.3 115.507C563.1 114.707 564.7 113.607 566.2 112.207C566.4 112.007 566.8 112.007 567.1 112.207C567.3 112.407 567.3 112.607 567.2 112.907C567.1 113.007 567.1 113.107 567 113.107ZM570.9 92.1071C570.6 92.3071 570.2 92.2071 570.1 91.9071C569.2 90.2071 568 88.6071 566.5 87.3071C566.3 87.1071 566.2 86.7071 566.5 86.4071C566.7 86.2071 567.1 86.1071 567.4 86.4071C569 87.9071 570.3 89.5071 571.2 91.3071C571.3 91.5071 571.3 91.7071 571.2 91.8071C571.1 92.0071 571 92.1071 570.9 92.1071ZM558.3 117.807C557.8 117.907 557.2 118.007 556.7 118.007C555.1 118.107 553.5 118.007 552 117.607C551.7 117.507 551.5 117.207 551.6 116.907C551.7 116.607 552 116.407 552.3 116.507C553.7 116.907 555.1 117.007 556.5 116.907C557 116.907 557.5 116.807 558 116.707C558.3 116.607 558.6 116.807 558.7 117.207C558.7 117.307 558.7 117.507 558.7 117.607C558.6 117.607 558.4 117.807 558.3 117.807ZM562.2 105.207C559.9 104.407 558.1 104.007 556.4 103.907C556.1 103.907 555.8 103.607 555.8 103.307C555.8 103.007 556.1 102.707 556.4 102.707C558.2 102.807 560.1 103.207 562.5 104.007C562.8 104.107 563 104.407 562.9 104.807C562.9 104.807 562.9 104.807 562.9 104.907C562.8 105.107 562.4 105.307 562.2 105.207ZM564.5 84.9071C564.3 85.2071 563.9 85.3071 563.7 85.1071C562.9 84.6071 562.2 84.2071 561.3 83.8071C560.3 83.4071 559.3 83.0071 558.3 82.7071C558 82.6071 557.8 82.3071 557.9 82.0071C558 81.7071 558.3 81.5071 558.6 81.6071C559.7 81.9071 560.8 82.3071 561.8 82.7071C562.7 83.1071 563.5 83.6071 564.3 84.1071C564.6 84.3071 564.7 84.6071 564.5 84.9071C564.6 84.9071 564.5 84.9071 564.5 84.9071ZM549.3 115.807C549.1 116.107 548.7 116.107 548.5 115.907C547.1 114.807 546.2 113.407 545.9 111.807C545.8 111.207 545.8 110.607 545.8 110.107C545.8 109.807 546.1 109.507 546.5 109.607C546.8 109.607 547.1 109.907 547 110.307C547 110.807 547 111.207 547.1 111.707C547.3 113.007 548.1 114.107 549.2 115.007C549.4 115.207 549.5 115.507 549.4 115.707C549.4 115.707 549.4 115.807 549.3 115.807ZM552.9 104.207C551.1 104.607 549.3 105.807 548.2 107.207C548 107.507 547.6 107.507 547.4 107.307C547.1 107.107 547.1 106.707 547.3 106.507C548.6 104.807 550.5 103.507 552.6 103.007C552.9 102.907 553.2 103.107 553.3 103.407C553.3 103.507 553.3 103.707 553.3 103.807C553.3 104.007 553.1 104.107 552.9 104.207Z" fill="#E1E9FF"/>
<path d="M588 142.207C588.1 141.907 588 141.607 587.8 141.507C587.5 141.307 587.2 141.407 587 141.607C586.4 142.407 585.8 143.107 585.1 143.707C584.9 143.907 584.8 144.307 585 144.507C585.2 144.707 585.6 144.807 585.9 144.607C586.7 143.907 587.4 143.107 588 142.307V142.207Z" fill="#E1E9FF"/>
<path d="M342.7 249.707C342.7 249.707 342 250.807 340.5 251.307C339 251.807 328.1 249.507 328.1 249.507L325.9 249.707C324.7 250.007 323.5 249.907 322.4 249.507L319.2 248.307L338.1 247.907L345.3 238.907L342.7 249.707Z" fill="#736AFF"/>
<path d="M349.1 229.107C349.1 229.107 354.9 232.307 355.9 236.007C356.9 239.707 355.9 252.207 355.9 252.207H346.6C346.6 252.207 344 247.407 341.9 243.107C341.3 241.807 341.3 240.307 341.8 239.007C343.3 235.607 345.6 230.907 345.6 230.907L349.1 229.107Z" fill="#FF6C95"/>
<path d="M344.3 312.707L343.5 314.807C343.3 315.407 342.9 315.907 342.4 316.207C341.8 316.607 341 317.107 339.7 317.407C341.3 318.807 343.8 317.307 345.3 316.307C346 315.807 346.5 315.107 346.7 314.207L347 312.607H344.3V312.707Z" fill="#736AFF"/>
<path d="M346.8 313.808C346.8 313.808 347.9 314.608 347.7 315.708C347.5 316.808 347.2 319.308 347.2 319.308H346.1V316.908C346.1 316.708 343.7 319.308 343.3 319.308H337.4C337.4 319.308 337 317.708 340.5 317.208C344 316.808 346.8 313.808 346.8 313.808Z" fill="#053C5E"/>
<path d="M354.5 312.707L353.7 314.807C353.5 315.407 353.1 315.907 352.6 316.207C352 316.607 351.2 317.107 349.9 317.407C351.5 318.807 354 317.307 355.5 316.307C356.2 315.807 356.7 315.107 356.9 314.207L357.2 312.607H354.5V312.707Z" fill="#9690FF"/>
<path d="M357.1 313.808C357.1 313.808 358.2 314.608 358 315.708C357.8 316.808 357.5 319.308 357.5 319.308H356.4V316.908C356.4 316.708 354 319.308 353.6 319.308H347.7C347.7 319.308 347.3 317.708 350.8 317.208C354.3 316.808 357.1 313.808 357.1 313.808Z" fill="#053C5E"/>
<path d="M346.6 252.307C346.6 252.307 338.5 262.807 344.6 286.607C344 296.907 344 313.107 344 313.107H346.9C346.9 313.107 354 295.607 351.6 286.607C351 277.707 353.2 252.207 353.2 252.207L346.6 252.307Z" fill="#1B1B7A"/>
<path d="M355.8 252.207C355.8 252.207 360.6 256.007 360.6 261.707C360.6 266.207 358.4 275.407 357.2 281.507C356.8 283.707 357.2 286.007 357.8 288.107C360.3 296.907 357.2 313.107 357.2 313.107H354.1C354.1 313.107 352.5 305.507 348.9 286.307C344.9 264.207 346.6 252.207 346.6 252.207H355.8Z" fill="#202094"/>
<path d="M318.6 248.307H333.6V247.207H319.3L312.9 235.107L312 235.607L318.6 248.307Z" fill="url(#paint2_linear)"/>
<path d="M353.2 239.308C353.2 239.308 348.4 250.508 346.1 250.508C343.8 250.508 331 245.008 331 245.008L331.3 243.108L344.3 245.308C344.3 245.308 345.5 242.208 346.3 238.708C346.6 237.308 347.7 236.208 349.1 235.908C352.3 235.408 353.2 239.308 353.2 239.308Z" fill="#9690FF"/>
<path d="M324.3 244.107C324.3 243.807 324.4 243.607 324.7 243.507L327.1 242.407C327.7 242.107 328.4 242.107 329 242.307L331.4 243.107H331.7L332 245.407C331.5 245.207 331.2 245.107 331.2 245.107L329.7 244.507C329.7 244.507 326.3 247.307 325.2 244.807C324.8 247.407 324.1 247.107 324.1 247.107L324.3 244.107Z" fill="#9690FF"/>
<path d="M339.4 219.808C339.4 219.808 339.5 221.208 339.7 221.708C339.9 222.308 340 222.408 340 222.608C340 222.808 339.8 223.608 339.1 224.508C338.9 224.808 339.4 225.308 339.8 225.308C340.2 225.308 340.1 226.008 340.4 226.508C340.7 227.008 340.3 227.508 340.8 228.108C341.1 228.508 342.2 228.408 343 228.108C343.8 227.808 344 227.508 344.8 229.408C345.4 230.908 345.5 231.308 345.5 231.308L347.8 230.208C347.8 230.208 347.8 230.408 348.9 228.508C349.9 226.708 350 227.108 350 227.108C350 227.108 348.8 227.108 348.1 226.208C347.5 225.308 347.1 224.408 346.7 223.408C346.3 222.308 346.1 222.008 344.1 221.808C342.3 221.508 340.5 222.008 339.4 219.808Z" fill="#8181FD"/>
<path d="M347 223.808C346.8 223.908 346.6 224.008 346.4 223.908C346.2 224.308 346.1 225.108 346.1 225.508C345.9 226.708 343.3 228.008 342.3 228.208C342.6 228.208 342.9 228.108 343.1 228.008C343.6 227.808 343.9 227.608 344.6 228.108C345.3 227.808 346.8 226.708 347 223.808Z" fill="#6F6FF5"/>
<path d="M345.2 214.207C342.3 214.207 340.4 215.107 339.1 217.907C337.8 220.707 339.9 221.707 339.9 221.707C339.7 221.107 339.6 219.807 339.6 219.807C340.7 222.007 342.5 221.607 344.5 221.707C346.5 221.807 346.7 222.207 347.1 223.307C347.5 224.407 347.8 225.207 348.5 226.107C348.9 226.807 351.6 223.907 351 220.007C350.3 216.307 348 214.307 345.2 214.207Z" fill="#202094"/>
<path d="M350.9 223.907C350.9 223.907 350.8 223.907 350.7 223.907C350.6 223.907 350.6 223.807 350.7 223.707C350.7 223.707 351.5 222.507 351.1 219.607C350.6 215.207 346.6 214.207 346.6 214.207C346.5 214.207 346.5 214.107 346.5 214.007C346.5 213.907 346.6 213.907 346.7 213.907C346.7 213.907 350.9 215.007 351.4 219.607C351.7 222.607 351 223.807 350.9 223.907C350.9 223.807 350.9 223.807 350.9 223.907Z" fill="#202094"/>
<path d="M348.6 218.907C348.5 218.907 348.4 218.907 348.4 218.807C348.4 218.807 347.6 216.107 345.5 215.107C344.4 214.607 343.2 214.607 341.9 215.107C338.9 216.307 338.3 218.307 338.2 219.707C338.2 219.807 338.1 219.807 338.1 219.807C338 219.807 338 219.707 338 219.707C338 218.207 338.7 216.207 341.8 214.907C343.2 214.307 344.5 214.307 345.6 214.907C347.8 216.007 348.6 218.707 348.6 218.807C348.7 218.807 348.7 218.907 348.6 218.907Z" fill="#202094"/>
<path d="M349.7 221.507C350 222.607 348.4 227.007 352 227.107C355.6 227.207 358.1 228.307 359.2 233.607C360.3 238.907 357.3 241.307 354.9 241.007C353.8 240.907 353 239.907 352.5 238.907C352 237.807 351.8 236.707 351.8 235.507C351.8 234.507 351.7 233.007 351.1 232.207C350.2 231.007 347.5 230.707 346.7 226.907C346 223.107 349.7 221.507 349.7 221.507Z" fill="#202094"/>
<path d="M347 224.207C347 224.207 347.3 225.407 348.1 225.407C348.7 225.407 349.2 225.307 349.4 225.207C349.5 225.207 349.7 225.207 349.8 225.207C350.1 225.307 350.7 226.707 353.9 225.807C354.6 225.607 355.6 225.607 356.6 226.207C358.6 227.407 358.9 228.407 358.9 228.407L358.5 228.807C358.5 228.807 357 225.807 354.2 226.007C353 226.107 352 226.707 350.5 225.907C350.4 225.807 350.1 225.607 349.9 225.507C349.8 225.507 349.7 225.507 349.5 225.507C349 225.707 347.3 226.107 346.6 224.907C346.6 224.807 346.9 224.107 347 224.207Z" fill="#FBB41F"/>
<path d="M357.5 119.807C357.5 125.507 336.9 130.107 311.5 130.107C286.1 130.107 265.5 125.507 265.5 119.807V113.607H357.5V119.807Z" fill="#FBA700"/>
<path d="M311.5 123.908C336.905 123.908 357.5 119.296 357.5 113.608C357.5 107.919 336.905 103.308 311.5 103.308C286.095 103.308 265.5 107.919 265.5 113.608C265.5 119.296 286.095 123.908 311.5 123.908Z" fill="#FFCC00"/>
<path d="M311.5 119.608C331.658 119.608 348 116.563 348 112.808C348 109.052 331.658 106.008 311.5 106.008C291.342 106.008 275 109.052 275 112.808C275 116.563 291.342 119.608 311.5 119.608Z" fill="#FBA700"/>
<path opacity="0.3" d="M311.5 103.407C298.6 103.407 286.9 104.607 278.5 106.507C278.4 106.807 278.3 107.207 278.3 107.507C278.3 113.207 298.9 117.807 324.3 117.807C337.2 117.807 348.9 116.607 357.3 114.707C357.4 114.407 357.5 114.007 357.5 113.707C357.5 108.107 336.9 103.407 311.5 103.407Z" fill="#FF9E00"/>
<path d="M373.3 104.407C373.3 110.107 352.7 114.707 327.3 114.707C301.9 114.707 281.3 110.107 281.3 104.407V98.207H373.3V104.407Z" fill="#FBA700"/>
<path d="M327.3 108.507C352.705 108.507 373.3 103.896 373.3 98.2072C373.3 92.5187 352.705 87.9072 327.3 87.9072C301.895 87.9072 281.3 92.5187 281.3 98.2072C281.3 103.896 301.895 108.507 327.3 108.507Z" fill="#FFCC00"/>
<path d="M327.3 104.207C347.458 104.207 363.8 101.163 363.8 97.4074C363.8 93.6519 347.458 90.6074 327.3 90.6074C307.142 90.6074 290.8 93.6519 290.8 97.4074C290.8 101.163 307.142 104.207 327.3 104.207Z" fill="#FBA700"/>
<path opacity="0.3" d="M327.3 87.9072C314.4 87.9072 302.7 89.1072 294.3 91.0072C294.2 91.3072 294.1 91.7072 294.1 92.0072C294.1 97.7072 314.7 102.307 340.1 102.307C353 102.307 364.7 101.107 373.1 99.2072C373.2 98.9072 373.3 98.5072 373.3 98.2072C373.3 92.5072 352.7 87.9072 327.3 87.9072Z" fill="#FF9E00"/>
<path d="M354.8 88.8074C354.8 94.5074 334.2 99.1074 308.8 99.1074C283.4 99.1074 262.8 94.5074 262.8 88.8074V82.6074H354.8V88.8074Z" fill="#FBA700"/>
<path d="M308.8 92.9076C334.205 92.9076 354.8 88.2961 354.8 82.6076C354.8 76.9191 334.205 72.3076 308.8 72.3076C283.395 72.3076 262.8 76.9191 262.8 82.6076C262.8 88.2961 283.395 92.9076 308.8 92.9076Z" fill="#FFCC00"/>
<path d="M308.8 88.6078C328.958 88.6078 345.3 85.5634 345.3 81.8078C345.3 78.0523 328.958 75.0078 308.8 75.0078C288.642 75.0078 272.3 78.0523 272.3 81.8078C272.3 85.5634 288.642 88.6078 308.8 88.6078Z" fill="#FBA700"/>
<path opacity="0.3" d="M308.8 72.4072C295.9 72.4072 284.2 73.6072 275.8 75.5072C275.7 75.8072 275.6 76.2072 275.6 76.5072C275.6 82.2072 296.2 86.8072 321.6 86.8072C334.5 86.8072 346.2 85.6072 354.6 83.7072C354.7 83.4072 354.8 83.0072 354.8 82.7072C354.8 77.0072 334.2 72.4072 308.8 72.4072Z" fill="#FF9E00"/>
<path d="M370 72.5076C370 78.2076 349.4 82.8076 324 82.8076C298.6 82.8076 278 78.2076 278 72.5076V66.3076H370V72.5076Z" fill="#FBA700"/>
<path d="M324 76.7074C349.405 76.7074 370 72.096 370 66.4074C370 60.7189 349.405 56.1074 324 56.1074C298.595 56.1074 278 60.7189 278 66.4074C278 72.096 298.595 76.7074 324 76.7074Z" fill="#FFCC00"/>
<path d="M324 76.7074C349.405 76.7074 370 72.096 370 66.4074C370 60.7189 349.405 56.1074 324 56.1074C298.595 56.1074 278 60.7189 278 66.4074C278 72.096 298.595 76.7074 324 76.7074Z" fill="#FFCC00"/>
<path d="M324 72.307C344.158 72.307 360.5 69.2626 360.5 65.507C360.5 61.7515 344.158 58.707 324 58.707C303.842 58.707 287.5 61.7515 287.5 65.507C287.5 69.2626 303.842 72.307 324 72.307Z" fill="#FBA700"/>
<path d="M343.7 106.808L344.1 109.508C343.3 110.108 342.2 110.108 341.3 109.608L341.1 109.508L340.4 106.808H343.7Z" fill="#6A5DFF"/>
<path d="M322.5 45.408C324.9 53.208 332.8 65.108 332.8 65.108L326.6 62.508L322.2 52.308C322.1 52.408 320.1 37.708 322.5 45.408Z" fill="#AFD8C7"/>
<path d="M339.4 76.608L344.3 107.008H340C340 107.008 330.2 79.708 329.1 71.708C329.1 67.208 339 71.708 339 71.708L339.4 76.608Z" fill="#1B1B7A"/>
<path d="M323.1 33.2072L321.5 37.4072L318 34.8072L320.4 29.9072L323.1 33.2072Z" fill="#6A5DFF"/>
<path d="M324.5 33.9076C325 34.0076 325.6 34.0076 325.9 33.9076C328 31.9076 327.4 25.4076 327.4 25.4076L325.1 23.8076L321.5 25.1076L320.5 29.2076C320.2 30.3076 320.5 31.5076 321.3 32.3076C322.2 33.1076 323.3 33.7076 324.5 33.9076Z" fill="url(#paint3_linear)"/>
<path d="M322.1 26.5077C322.4 25.8077 323.2 25.5077 323.9 25.8077C324.4 26.0077 325 26.2077 325.6 26.3077C327 26.6077 329.7 26.6077 330.1 24.4077C330.6 22.2077 327.7 22.4077 327.7 22.4077L324 22.7077C322.9 22.8077 321.8 22.6077 320.8 22.1077C319.9 21.7077 319.1 22.5077 318.9 23.1077C318.5 24.3077 318.9 26.4077 319.3 27.7077C319.5 28.5077 319.9 29.2077 320.3 29.8077L322.1 26.5077Z" fill="#212432"/>
<path d="M320 27.4076C320.4 27.2076 321 27.4076 321.3 27.8076C321.6 28.2076 321.6 28.8076 321.2 29.0076C320.8 29.2076 320.2 29.0076 319.9 28.6076C319.6 28.1076 319.7 27.6076 320 27.4076Z" fill="url(#paint4_linear)"/>
<path d="M344.2 109.108C344.2 109.108 344.2 111.908 349.9 113.608C351.1 113.908 350.7 114.308 350.9 114.808C349 114.808 344.4 114.808 344.4 114.808L341.8 111.908L341 112.608L339.2 110.808C339.2 110.808 339.5 108.208 340.9 108.208C342.1 108.608 344.2 109.108 344.2 109.108Z" fill="#343A4D"/>
<path d="M328.2 105.907L327.1 108.307C326.1 108.607 325.1 108.307 324.5 107.507L324.4 107.407L325.3 104.907L328.2 105.907Z" fill="url(#paint5_linear)"/>
<path d="M322.3 36.2072C322.3 36.2072 322.8 35.5072 318.7 33.4072C312.7 39.4072 310.7 62.5072 310.7 62.5072C310.7 62.5072 324.8 62.5072 326.5 62.5072C327 49.4072 322.3 36.2072 322.3 36.2072Z" fill="#04AD95"/>
<path d="M337.9 62.0076C338 61.7076 337.8 61.4076 337.6 61.2076L335 59.7076C334.4 59.3076 333.6 59.2076 332.9 59.4076L330.1 59.5076L329.7 59.9076L329.1 62.4076C329.7 62.3076 330 62.2076 330 62.2076H331.8C331.8 62.2076 335.1 65.3076 336.8 62.6076C336.9 65.5076 337.7 65.3076 337.7 65.3076L337.9 62.0076Z" fill="url(#paint6_linear)"/>
<path d="M310.7 62.6074L310.5 64.6074V64.7074C310.1 68.4074 312.5 71.9074 316.2 72.9074C316.2 72.9074 323.4 75.3074 332.4 75.8074C326.4 83.4074 324.8 104.907 324.8 104.907L328.6 106.307L343.4 71.0074C344.3 68.7074 343 66.2074 340.6 65.7074L326.5 62.7074H310.7V62.6074Z" fill="#202094"/>
<path d="M318.2 46.2074C317.2 47.2074 317 47.4074 315.9 49.2074C315.4 50.0074 315.5 51.0074 316.1 51.7074C319.4 55.5074 331.1 59.1074 331.1 59.1074L330.3 63.4074C330.3 63.4074 313.7 60.1074 307.8 54.2074C301.8 48.1074 315.9 37.1074 315.9 37.1074C315.9 37.1074 317.9 34.7074 319.8 38.2074C320.6 39.6074 320.6 41.0074 320.4 42.2074C320.1 43.7074 319.3 45.1074 318.2 46.2074Z" fill="#00C7B1"/>
<path d="M344.1 67.1076L349 49.5076L348.1 49.3076L343.4 66.0076L329.3 63.6076L329.1 64.5076L344.1 67.1076Z" fill="#BEC7FA"/>
<path d="M327.3 107.807C327.3 107.807 327.1 110.607 332.7 112.307C333.9 112.607 333.5 113.007 333.7 113.507C331.8 113.507 327.2 113.507 327.2 113.507L324.6 110.607L323.8 111.307L322 109.507C322 109.507 322.9 106.907 324.3 106.907C325.5 107.307 327.3 107.807 327.3 107.807Z" fill="#343A4D"/>
<defs>
<linearGradient id="paint0_linear" x1="61" y1="299.478" x2="649.274" y2="299.478" gradientUnits="userSpaceOnUse">
<stop offset="0.6658" stop-color="#6249FF"/>
<stop offset="1" stop-color="#483DCC" stop-opacity="0"/>
</linearGradient>
<linearGradient id="paint1_linear" x1="156.602" y1="275.711" x2="229.295" y2="254.509" gradientUnits="userSpaceOnUse">
<stop stop-color="white"/>
<stop offset="0.333" stop-color="#FCFEFE"/>
<stop offset="0.5507" stop-color="#F4FAFC"/>
<stop offset="0.7354" stop-color="#E5F3F8"/>
<stop offset="0.9007" stop-color="#D0EAF2"/>
<stop offset="1" stop-color="#BFE3EE"/>
</linearGradient>
<linearGradient id="paint2_linear" x1="333.642" y1="241.683" x2="311.96" y2="241.683" gradientUnits="userSpaceOnUse">
<stop stop-color="#DFEFEA"/>
<stop offset="1" stop-color="#BFE3EE"/>
</linearGradient>
<linearGradient id="paint3_linear" x1="320.352" y1="28.8622" x2="327.452" y2="28.8622" gradientUnits="userSpaceOnUse">
<stop stop-color="#6F6FF7"/>
<stop offset="1" stop-color="#8383FF"/>
</linearGradient>
<linearGradient id="paint4_linear" x1="319.745" y1="28.1683" x2="321.578" y2="28.1683" gradientUnits="userSpaceOnUse">
<stop stop-color="#6F6FF7"/>
<stop offset="1" stop-color="#8383FF"/>
</linearGradient>
<linearGradient id="paint5_linear" x1="324.338" y1="106.705" x2="328.16" y2="106.705" gradientUnits="userSpaceOnUse">
<stop stop-color="#6F6FF7"/>
<stop offset="1" stop-color="#8383FF"/>
</linearGradient>
<linearGradient id="paint6_linear" x1="329.131" y1="62.2951" x2="337.889" y2="62.2951" gradientUnits="userSpaceOnUse">
<stop stop-color="#6F6FF7"/>
<stop offset="1" stop-color="#8383FF"/>
</linearGradient>
</defs>
</svg>
